<svg width="0" height="0" class="hidden">
  <symbol fill="none" xmlns="http://www.w3.org/2000/svg" viewBox="0 0 40 41" id="arrow">
    <path fill-rule="evenodd" clip-rule="evenodd" d="M29.9998 20.5001C29.9998 20.8316 29.8681 21.1496 29.6337 21.384C29.3993 21.6184 29.0813 21.7501 28.7498 21.7501H14.2673L19.6348 27.1151C19.751 27.2313 19.8432 27.3693 19.9061 27.5212C19.969 27.673 20.0014 27.8358 20.0014 28.0001C20.0014 28.1645 19.969 28.3272 19.9061 28.4791C19.8432 28.6309 19.751 28.7689 19.6348 28.8851C19.5186 29.0013 19.3806 29.0935 19.2288 29.1564C19.0769 29.2193 18.9142 29.2517 18.7498 29.2517C18.5854 29.2517 18.4227 29.2193 18.2708 29.1564C18.119 29.0935 17.981 29.0013 17.8648 28.8851L10.3648 21.3851C10.2484 21.269 10.156 21.1311 10.093 20.9792C10.03 20.8273 9.99756 20.6645 9.99756 20.5001C9.99756 20.3357 10.03 20.1729 10.093 20.021C10.156 19.8692 10.2484 19.7312 10.3648 19.6151L17.8648 12.1151C18.0995 11.8804 18.4179 11.7485 18.7498 11.7485C19.0817 11.7485 19.4001 11.8804 19.6348 12.1151C19.8695 12.3498 20.0014 12.6682 20.0014 13.0001C20.0014 13.3321 19.8695 13.6504 19.6348 13.8851L14.2673 19.2501H28.7498C29.0813 19.2501 29.3993 19.3818 29.6337 19.6162C29.8681 19.8507 29.9998 20.1686 29.9998 20.5001Z" fill="#FCFEFF"></path>
  </symbol>
  <symbol fill="none" xmlns="http://www.w3.org/2000/svg" viewBox="0 0 209 220" id="employee">
    <path d="M85.9158 65.0659C83.7003 67.1657 83.7003 70.6016 85.9158 72.7649C87.154 73.9102 87.9359 74.2284 89.0437 73.9738C93.2142 72.7013 94.4524 67.6747 91.129 64.9387C88.9786 63.0935 87.8708 63.0935 85.9158 65.0659Z" fill="black"></path>
    <path d="M117.521 65.1932C116.413 66.593 116.152 67.5474 116.413 69.3926C116.869 72.574 117.912 73.6557 120.453 73.6557C123.32 73.6557 124.689 72.0014 124.689 68.3746C124.689 66.084 124.363 65.2568 123.255 64.4933C121.105 62.9662 119.085 63.2843 117.521 65.1932Z" fill="black"></path>
    <path d="M93.7356 92.935C92.302 94.9711 92.5626 96.3073 94.5827 97.7071C98.4274 100.379 104.488 101.079 110.157 99.425C114.588 98.1525 116.999 96.2436 116.739 94.1439C116.413 91.4079 114.849 91.0261 110.222 92.6168C105.205 94.3348 103.771 94.3348 98.6881 92.8077L94.713 91.5988L93.7356 92.935Z" fill="black"></path>
    <path d="M58.1883 135.438C58.1471 134.819 58.1558 134.357 58.0255 133.911L54.637 134.739C54.637 134.739 53.1888 134.913 52.4866 135.438C51.2918 136.333 50.9226 136.775 51.2484 139.002L51.9001 146.192L52.5517 154.463L53.2034 162.735L53.6595 170.37C53.6595 170.37 53.9202 176.097 53.6595 179.723C53.5972 180.591 53.0333 181.864 53.0333 181.864L52.7472 182.841L51.73 186.318C51.73 186.318 51.542 186.91 51.4439 187.295C51.3482 187.672 51.275 187.968 51.2323 188.266L50.7923 190.286L49.8148 192.831L49.0384 194.741C48.7973 195.235 48.4915 195.977 48.1857 196.839L47.7461 198.202C47.0045 200.856 46.5288 202.331 45.5791 204.92C45.2127 205.92 44.8808 206.439 44.6017 207.465C44.0568 209.468 44.385 210.691 44.2462 212.759C44.1814 213.723 44.0804 213.648 44.0804 215.228V219.193C54.6957 219.324 78.0908 219.427 104.944 219.427H164.96V213.319C164.96 210.519 164.766 208.966 164.6 208.276C164.434 207.586 164.453 207.208 164.246 206.552C163.898 205.444 163.627 204.869 163.186 203.793C162.55 202.243 162.484 201.93 161.767 199.766C161.05 197.603 160.547 197.426 160.073 195.821C159.928 195.329 159.876 195.045 159.747 194.549C159.425 193.304 159.356 192.576 158.9 191.367C158.444 190.158 158.428 189.872 158.236 189.31C157.883 188.276 158.404 186.35 157.903 184.368C157.654 183.384 157.563 182.821 157.382 181.823C156.41 176.48 156.586 174.758 156.535 169.332C156.525 168.338 156.431 167.775 156.535 166.787C156.653 165.647 156.721 164.934 156.822 163.793C156.888 163.05 156.59 161.332 156.717 160.635C157.121 158.42 156.717 154.909 156.717 154.909C156.717 154.909 156.672 152.473 156.717 151.409C156.762 150.345 156.717 146.955 156.717 146.955V144.41V141.724V140.209C156.717 139.588 156.724 139.24 156.717 138.62C156.704 137.427 157.271 135.693 156.619 135.566L151.443 133.507L151.341 133.466C151.015 133.466 150.754 134.166 150.754 135.057L150.432 139.326L150.298 141.101L149.647 149.055L149.174 155.753L148.995 158.281L148.517 165.044L148.343 167.507C148.343 167.507 147.984 174.828 147.984 177.241C147.984 178.593 146.892 179.625 145.509 179.723C141.621 180 135.767 179.723 135.767 179.723C135.767 179.723 131.205 179.533 103.706 179.405C86.6074 179.366 71.4648 179.4 62.4306 179.492L61.2837 171.77L61.2186 170.561L60.6321 164.135V161.271C60.6321 161.271 60.334 158.17 60.3095 157.241C60.285 156.313 59.9805 154.272 59.9805 154.272C59.9805 154.272 59.7061 151.631 59.6024 150C59.5315 148.884 59.3672 148.391 59.3288 147.273C59.2472 144.901 58.6772 142.112 58.6772 141.229V138.683C58.6772 137.712 58.2724 136.703 58.1883 135.438Z" fill='currentColor'></path>
    <path d="M88.0663 145.174C82.1363 141.229 76.5322 133.53 76.467 129.139C76.467 127.421 76.076 127.421 69.8203 129.457C65.0633 130.984 64.8026 131.112 65.0633 132.766C65.2588 133.657 65.8453 140.147 66.3666 147.146C66.953 154.145 67.6698 162.289 67.9957 165.28L68.0851 166.1C68.3785 168.788 68.6473 171.25 68.6473 171.77C68.6473 172.852 70.7977 172.915 104.814 172.915C138.829 172.915 140.98 172.852 140.98 171.77C140.98 171.197 141.697 162.099 142.609 151.6C143.521 141.101 144.238 132.193 144.238 131.812C144.238 130.921 134.724 127.549 133.812 128.058C133.421 128.248 133.16 128.821 133.16 129.203C133.16 131.239 129.511 137.093 126.187 140.529C115.696 151.282 100.187 153.191 88.0663 145.174Z" fill="#44D324"></path>
    <path d="M46.9476 176.097C47.1431 174.188 46.6869 165.025 45.9049 155.736C45.123 146.446 44.4062 138.683 44.341 138.429C44.1455 137.793 30.9171 143.774 27.5286 146.064C20.556 150.709 16.3855 157.263 13.6486 167.889C11.8892 174.633 8.82643 191.94 8.56577 196.776L8.37028 199.894L17.8191 200.975C23.0323 201.548 29.4835 202.184 32.1553 202.311L37.0426 202.502V190.668C37.0426 178.006 37.3684 176.733 40.3008 176.733C42.7771 176.733 43.4939 178.387 43.559 183.796C43.559 186.595 43.6242 188.822 43.6894 188.822C44.1455 188.822 46.6869 178.833 46.9476 176.097Z" fill="#44D324"></path>
    <path d="M169.066 140.211C183.858 146.128 190.439 152.173 194.024 163.371C196.5 170.943 201.778 199.13 200.866 199.894C200.54 200.148 180.86 202.057 175.582 202.311L172.063 202.502L172.193 190.922C172.324 178.133 172.063 176.733 169.066 176.733C166.394 176.733 165.807 177.815 165.286 183.35L164.895 188.25L164.103 183.605C163.136 177.241 163.136 175.172 163.136 155.736C163.852 147.528 164.439 140.274 164.439 139.638C164.439 139.19 164.402 138.885 164.54 138.752C164.813 138.488 165.773 138.899 169.066 140.211Z" fill="#44D324"></path>
    <path fill-rule="evenodd" clip-rule="evenodd" d="M98.6229 0.292659C89.0438 1.37433 79.0736 5.6374 73.3391 11.173C66.6924 17.5358 63.9555 23.9622 62.8477 35.5425C62.4567 39.6147 61.7399 44.0687 61.2186 45.4049C60.2411 48.2045 60.3063 48.7135 62.3264 52.5948C63.76 55.3308 63.76 55.3308 62.4567 56.0944C61.7399 56.4761 60.1108 57.8123 58.8075 59.0213C56.7874 60.9301 56.3312 61.8845 55.6796 65.7658C54.1808 74.292 57.6997 83.2635 64.0206 87.0812C66.8879 88.8628 67.2137 89.3082 67.9957 92.5532C69.0383 97.198 70.7977 101.143 73.4043 104.77C75.4896 107.697 75.4896 107.697 75.1637 113.996L74.8379 120.359L66.0407 123.286C65.2388 123.554 64.4509 123.819 63.6766 124.081L65.0633 132.766C64.8026 131.112 65.0633 130.984 69.8203 129.457C76.076 127.421 76.467 127.421 76.467 129.139C76.5322 133.53 82.1363 141.229 88.0663 145.174C100.187 153.191 115.696 151.282 126.187 140.529C129.511 137.093 133.16 131.239 133.16 129.203C133.16 128.821 133.421 128.248 133.812 128.058C134.724 127.549 144.238 130.921 144.238 131.812C144.238 132.193 143.521 141.101 142.609 151.6C141.697 162.099 140.98 171.197 140.98 171.77C140.98 172.852 138.829 172.915 104.814 172.915C70.7977 172.915 68.6473 172.852 68.6473 171.77C68.6473 171.25 68.3785 168.788 68.0851 166.1L67.9957 165.28C67.6698 162.289 66.953 154.145 66.3666 147.146C65.8453 140.147 65.2588 133.657 65.0633 132.766L63.6766 124.081C55.6056 126.806 49.0168 129.137 43.5594 131.239L44.341 138.429C44.4062 138.683 45.123 146.446 45.9049 155.736C46.6869 165.025 47.1431 174.188 46.9476 176.097C46.6869 178.833 44.1455 188.822 43.6894 188.822C43.6242 188.822 43.559 186.595 43.559 183.796C43.4939 178.387 42.7771 176.733 40.3008 176.733C37.3684 176.733 37.0426 178.006 37.0426 190.668V202.502L32.1553 202.311C29.4835 202.184 23.0323 201.548 17.8191 200.975L8.37028 199.894L8.56577 196.776C8.82643 191.94 11.8892 174.633 13.6486 167.889C16.3855 157.263 20.556 150.709 27.5286 146.064C30.9171 143.774 44.1455 137.793 44.341 138.429L43.5594 131.239C29.7136 136.571 23.1507 140.426 18.1449 145.492C10.26 153.445 7.26249 162.035 2.17967 190.986C0.485393 200.784 0.485394 203.329 2.24483 205.175C3.61328 206.575 3.67845 206.765 2.89647 212.365C1.91901 219.236 2.24483 220 6.48051 220C7.64547 220 8.39391 220 8.89559 219.657C9.79705 219.04 9.90183 217.316 10.1949 212.492C10.3252 209.947 10.651 207.72 10.8465 207.529C11.1723 207.147 30.3307 208.801 35.2832 209.565L37.3684 209.883V214.273C37.3684 216.691 37.6291 218.791 38.0201 219.046C38.1061 219.096 40.2699 219.146 44.0804 219.193V215.228C44.0804 213.648 44.1814 213.723 44.2462 212.759C44.385 210.691 44.0568 209.468 44.6017 207.465C44.8808 206.439 45.2127 205.92 45.5791 204.92C46.5288 202.331 47.0045 200.856 47.7461 198.202C47.8675 197.783 48.0157 197.319 48.1857 196.839C48.4915 195.977 48.7973 195.235 49.0384 194.741L49.8148 192.831L50.7923 190.286L51.2323 188.266C51.275 187.968 51.3482 187.672 51.4439 187.295C51.542 186.91 51.73 186.318 51.73 186.318L52.7472 182.841C52.8268 182.453 52.928 182.117 53.0333 181.864C53.0333 181.864 53.5972 180.591 53.6595 179.723C53.9202 176.097 53.6595 170.37 53.6595 170.37L53.2034 162.735L52.5517 154.463L51.9001 146.192L51.2484 139.002C50.9226 136.775 51.2918 136.333 52.4866 135.438C53.1888 134.913 54.637 134.739 54.637 134.739L58.0255 133.911C58.1558 134.357 58.1471 134.819 58.1883 135.438C58.2724 136.703 58.6772 137.712 58.6772 138.683V141.229C58.6772 142.112 59.2472 144.901 59.3288 147.273C59.3672 148.391 59.5315 148.884 59.6024 150C59.7061 151.631 59.9805 154.272 59.9805 154.272C59.9805 154.272 60.285 156.313 60.3095 157.241C60.334 158.17 60.6321 161.271 60.6321 161.271V164.135L61.2186 170.561L61.2837 171.77L62.4306 179.492C71.4648 179.4 86.6074 179.366 103.706 179.405C131.205 179.533 135.767 179.723 135.767 179.723C135.767 179.723 141.621 180 145.509 179.723C146.892 179.625 147.984 178.593 147.984 177.241C147.984 174.828 148.343 167.507 148.343 167.507C148.343 165.881 148.421 164.942 148.517 165.044L148.995 158.281C148.995 156.479 149.076 155.543 149.174 155.753L149.647 149.055L150.298 141.101C150.298 140.046 150.356 139.411 150.432 139.326L150.754 135.057C150.754 134.166 151.015 133.466 151.341 133.466C151.378 133.466 151.412 133.48 151.443 133.507L156.619 135.566C157.271 135.693 156.704 137.427 156.717 138.62C156.724 139.24 156.717 139.588 156.717 140.209V141.724V144.41V146.955C156.717 146.955 156.762 150.345 156.717 151.409C156.672 152.473 156.717 154.909 156.717 154.909C156.717 154.909 157.121 158.42 156.717 160.635C156.59 161.332 156.888 163.05 156.822 163.793C156.721 164.934 156.653 165.647 156.535 166.787C156.431 167.775 156.525 168.338 156.535 169.332C156.586 174.758 156.41 176.48 157.382 181.823C157.563 182.821 157.654 183.384 157.903 184.368C158.404 186.35 157.883 188.276 158.236 189.31C158.428 189.872 158.444 190.158 158.9 191.367C159.356 192.576 159.425 193.304 159.747 194.549C159.876 195.045 159.928 195.329 160.073 195.821C160.547 197.426 161.05 197.603 161.767 199.766C162.484 201.93 162.55 202.243 163.186 203.793C163.627 204.869 163.898 205.444 164.246 206.552C164.453 207.208 164.434 207.586 164.6 208.276C164.766 208.966 164.96 210.519 164.96 213.319V219.427H171.281L171.672 217.646C171.933 216.691 172.128 214.528 172.193 212.874C172.259 210.01 172.324 209.883 174.409 209.565C178.058 209.056 198.585 207.274 198.781 207.465C198.846 207.593 199.172 210.201 199.367 213.383C199.628 216.5 200.149 219.236 200.54 219.491C201.778 220.318 204.645 220.064 205.492 219.046C206.144 218.346 206.209 216.564 205.883 212.237C205.427 206.829 205.492 206.384 206.861 204.92C208.36 203.457 208.36 203.329 207.513 196.903C206.405 188.313 203.929 174.761 201.908 166.871C197.999 151.473 190.179 142.056 176.299 135.947C170.108 133.211 148.408 125.067 140.589 122.522L133.942 120.422L133.681 114.059L133.486 107.697L135.897 104.133C138.894 99.8068 140.719 95.8619 141.306 92.4259C141.762 89.8808 143.26 87.6538 144.368 87.6538C146.063 87.6538 149.647 83.8998 151.536 80.1458C153.426 76.4553 153.687 75.3736 153.687 70.5379C153.687 62.5208 151.927 59.403 145.02 55.4581C144.89 55.3945 145.606 54.2492 146.519 52.913C147.887 50.9405 148.213 49.9225 147.887 47.8864C147.757 46.4865 147.17 41.5236 146.584 36.8787C145.411 26.2529 145.15 25.2348 142.87 20.3991C140.719 15.6906 135.636 10.155 130.358 6.7827C122.343 1.69246 109.571 -0.916272 98.6229 0.292659ZM70.2764 37.3877C71.1887 37.3241 72.1832 36.1099 73.5346 35.5425C85.9158 30.3448 92.9552 29.2011 105.791 29.3706C119.309 29.5492 139.481 37.1332 139.481 37.1332C139.676 37.006 139.676 36.1788 139.481 35.3517C136.266 18.4161 122.511 6.31912 104.854 6.2069C87.4592 6.09635 69.355 17.1221 69.9506 34.0791C69.9962 35.3764 69.8854 37.3877 70.2764 37.3877ZM107.941 37.1969C109.341 37.1808 110.127 37.1487 111.525 37.1969C119.508 37.472 123.884 39.2704 131.401 41.9053C133.251 42.554 133.812 42.6689 136.092 43.6869C138.438 44.7686 140.328 45.9139 140.328 46.3593C140.328 46.3593 140.958 47.622 140.849 48.459C140.777 49.0129 140.784 49.2225 140.328 49.7952C139.416 50.8769 137.852 51.0041 136.418 50.1134C136.418 50.1134 123.859 45.507 115.435 44.196C110.191 43.3797 107.191 43.0127 101.881 43.1143C96.6048 43.2152 91.2815 44.4642 84.7028 46.2317C79.8673 47.5309 77.9858 48.2759 72.5572 50.3042C71.5825 50.6684 70.6022 51.195 69.8854 50.2406C69.1686 49.2862 68.7776 48.5226 68.7125 47.7591C68.6473 46.9956 69.1079 46.2953 69.8203 45.723C70.2691 45.3625 70.6373 45.3381 71.1642 45.0983C80.1913 40.9899 85.6857 39.1135 95.5602 37.8332C100.36 37.2108 103.1 37.2526 107.941 37.1969ZM135.245 57.1761C132.443 55.7126 118.107 51.4495 113.937 50.8769C100.904 48.9044 94.6479 49.668 79.2039 54.9491L72.4268 57.3033L72.883 60.4211C73.2088 62.7753 73.0785 63.9206 72.2965 65.0659C70.8629 67.1656 69.6248 67.0384 67.4092 64.7478L65.5846 62.7753L64.0206 63.9842C62.7174 65.0659 62.4567 65.8931 62.2612 69.9016C62.0657 74.0375 62.2612 75.0555 63.8903 78.1096C65.6498 81.5456 65.7801 81.6092 68.908 81.9273L72.1662 82.2455L73.5998 88.3538C75.4244 95.7982 77.5097 100.316 81.5499 105.215C85.3294 109.796 89.9561 113.296 94.7131 115.141C97.5151 116.286 99.6655 116.541 104.553 116.605C110.548 116.605 111.004 116.477 115.826 114.123C125.014 109.542 133.812 98.2797 135.767 88.481C136.874 82.6909 137.396 81.9273 139.872 81.9273C142.413 81.9273 144.303 80.273 145.932 76.519C147.366 73.083 147.431 66.6566 145.997 64.4933C144.629 62.4572 142.804 62.3299 141.957 64.2387C140.98 66.2748 139.285 67.102 137.917 66.2748C137.07 65.7658 136.679 64.5569 136.549 61.6936C136.418 58.7031 136.092 57.6214 135.245 57.1761ZM124.819 131.112C126.513 127.739 126.904 126.021 127.165 121.758C127.556 114.25 127.491 114.123 124.102 116.668C116.869 122.14 106.312 124.431 97.1893 122.586C92.9536 121.695 86.372 118.768 83.5699 116.477L81.4847 114.759L81.8105 120.804C82.2015 127.549 84.0913 132.766 87.4146 136.202C98.6229 147.846 117.716 145.237 124.819 131.112ZM194.024 163.371C190.439 152.173 183.858 146.128 169.066 140.211C165.773 138.899 164.813 138.488 164.54 138.752C164.402 138.885 164.439 139.19 164.439 139.638C164.439 140.274 163.852 147.528 163.136 155.736C163.136 175.172 163.136 177.241 164.103 183.605L164.895 188.25L165.286 183.35C165.807 177.815 166.394 176.733 169.066 176.733C172.063 176.733 172.324 178.133 172.193 190.922L172.063 202.502L175.582 202.311C180.86 202.057 200.54 200.148 200.866 199.894C201.778 199.13 196.5 170.943 194.024 163.371Z" fill="black"></path>
    <path d="M111.525 37.1969C110.127 37.1487 109.341 37.1808 107.941 37.1969C103.1 37.2526 100.36 37.2108 95.5602 37.8332C85.6857 39.1135 80.1913 40.9899 71.1642 45.0983C70.6373 45.3381 70.2691 45.3625 69.8203 45.723C69.1079 46.2953 68.6473 46.9956 68.7125 47.7591C68.7776 48.5226 69.1686 49.2862 69.8854 50.2406C70.6022 51.195 71.5825 50.6684 72.5572 50.3042C77.9858 48.2759 79.8673 47.5309 84.7028 46.2317C91.2815 44.4642 96.6048 43.2152 101.881 43.1143C107.191 43.0127 110.191 43.3797 115.435 44.196C123.859 45.507 136.418 50.1134 136.418 50.1134C137.852 51.0041 139.416 50.8769 140.328 49.7952C140.784 49.2225 140.777 49.0129 140.849 48.459C140.958 47.622 140.328 46.3593 140.328 46.3593C140.328 45.9139 138.438 44.7686 136.092 43.6869C133.812 42.6689 133.251 42.554 131.401 41.9053C123.884 39.2704 119.508 37.472 111.525 37.1969Z" fill='currentColor'></path>
    <path d="M73.5346 35.5425C72.1832 36.1099 71.1887 37.3241 70.2764 37.3877C69.8854 37.3877 69.9962 35.3764 69.9506 34.0791C69.355 17.1221 87.4592 6.09635 104.854 6.2069C122.511 6.31912 136.266 18.4161 139.481 35.3517C139.676 36.1788 139.676 37.006 139.481 37.1332C139.481 37.1332 119.309 29.5492 105.791 29.3706C92.9552 29.2011 85.9158 30.3448 73.5346 35.5425Z" fill='currentColor'></path>
  </symbol>
  <symbol fill="none" xmlns="http://www.w3.org/2000/svg" viewBox="0 0 200 200" id="chemistry">
    <path d="M189.936 67.7704C188.889 68.3273 186.363 69.936 184.392 71.3592C178.602 75.3193 170.657 79.8981 157.291 86.8901C133.885 99.2035 125.632 106.072 118.302 119.251C115.653 124.016 113.251 132.802 112.82 139.361C111.958 153.16 117.317 167.267 125.94 173.764C129.882 176.796 129.697 175.188 127.356 188.429C126.063 195.916 126.001 196.844 126.864 198.329C127.541 199.567 128.28 200 129.574 200C131.668 200 132.961 198.082 132.961 195.05C132.961 192.946 135.24 180.509 135.733 180.014C135.856 179.828 137.704 180.076 139.737 180.509C144.11 181.437 153.718 181.004 158.523 179.705C176.139 174.754 188.273 162.379 194.802 142.764C200.776 124.635 201.577 105.701 197.327 80.3313C195.664 69.9979 195.11 68.2654 193.385 67.3372C191.907 66.5329 192.215 66.471 189.936 67.7704ZM191.106 81.3213C192.831 91.0977 193.385 97.7804 193.447 108.423C193.447 125.563 191.291 136.329 185.193 148.89C181.867 155.882 181.005 157.12 176.139 162.008C171.766 166.339 169.795 167.824 165.606 169.866C158.646 173.208 152.179 174.569 145.28 174.198C137.211 173.703 137.396 174.136 141.215 164.731C146.697 151.365 148.606 147.467 150.577 146.168C152.302 145.054 162.834 139.794 172.197 135.463C174.784 134.226 176.816 132.864 177.001 132.184C177.555 130.451 176.262 128.533 174.414 128.533C172.813 128.533 162.588 132.617 159.016 134.721C157.907 135.401 156.983 135.772 156.983 135.649C156.983 135.339 162.773 126.8 170.903 114.982C174.599 109.661 174.845 109.104 174.044 107.866C172.874 106.134 170.718 105.886 169.179 107.309C167.392 108.918 156.552 124.078 151.871 131.441L147.929 137.752L147.559 131.75C147.005 122.407 145.403 119.685 141.892 121.974C140.045 123.15 140.106 122.902 141.338 133.174C141.892 137.567 142.2 142.517 142.077 144.064C141.769 146.91 132.469 169.928 131.545 169.99C130.313 169.99 125.385 163.864 123.414 159.904C116.577 145.92 118.672 128.657 128.835 115.229C134.501 107.742 140.106 103.782 160.987 92.459C177.555 83.4869 181.066 81.5069 186.055 78.1037C187.842 76.9281 189.505 75.938 189.689 75.938C189.936 75.938 190.552 78.3512 191.106 81.3213Z" fill="black"></path>
    <path d="M191.106 81.3213C192.831 91.0977 193.385 97.7804 193.447 108.423C193.447 125.563 191.291 136.329 185.193 148.89C181.867 155.882 181.005 157.12 176.139 162.008C171.766 166.339 169.795 167.824 165.606 169.866C158.646 173.208 152.179 174.569 145.28 174.198C137.211 173.703 137.396 174.136 141.215 164.731C146.697 151.365 148.606 147.467 150.577 146.168C152.302 145.054 162.834 139.794 172.197 135.463C174.784 134.226 176.816 132.864 177.001 132.184C177.555 130.451 176.262 128.533 174.414 128.533C172.813 128.533 162.588 132.617 159.016 134.721C157.907 135.401 156.983 135.772 156.983 135.649C156.983 135.339 162.773 126.8 170.903 114.982C174.599 109.661 174.845 109.104 174.044 107.866C172.874 106.134 170.718 105.886 169.179 107.309C167.392 108.918 156.552 124.078 151.871 131.441L147.929 137.752L147.559 131.75C147.005 122.407 145.403 119.685 141.892 121.974C140.045 123.15 140.106 122.902 141.338 133.174C141.892 137.567 142.2 142.517 142.077 144.064C141.769 146.91 132.469 169.928 131.545 169.99C130.313 169.99 125.385 163.864 123.414 159.904C116.577 145.92 118.672 128.657 128.835 115.229C134.501 107.742 140.106 103.782 160.987 92.459C177.555 83.4869 181.066 81.5069 186.055 78.1037C187.842 76.9281 189.505 75.938 189.689 75.938C189.936 75.938 190.552 78.3512 191.106 81.3213Z" fill="#44D324"></path>
    <path fill-rule="evenodd" clip-rule="evenodd" d="M45.6205 0.32515C42.9104 1.12954 40.0155 4.0996 39.3379 6.69841C38.9684 8.05969 38.722 12.3292 38.7836 16.1036C38.9068 21.425 38.722 23.0338 38.106 23.2194C37.6133 23.405 36.6278 24.1475 35.8271 24.9519C34.5336 26.2513 34.4104 26.932 34.4104 32.934V39.4928L32.4394 40.5447C28.6206 42.6485 22.9539 47.9699 18.8272 53.415C9.58807 65.6046 3.12072 83.7344 0.841742 103.72C0.041021 110.589 -0.0821668 118.633 0.0410209 148.024L0.225803 183.912L2.01203 187.748C3.92144 192.018 7.43229 195.669 11.7439 197.958L14.3924 199.381H106.167L109.309 197.711C112.819 195.854 116.207 192.327 118.301 188.429C119.472 186.202 119.718 184.84 119.718 179.89V174.594C117.499 172.624 115.499 170.199 113.762 167.438C113.335 166.758 112.923 166.058 112.528 165.34C108.128 157.337 105.788 147.031 106.424 136.872C106.915 129.425 109.649 119.448 112.663 114.038C114.003 111.634 115.371 109.415 116.832 107.325C118.499 104.943 120.287 102.729 122.298 100.602C122.281 100.432 122.263 100.255 122.243 100.07C120.088 76.3711 108.323 52.92 93.479 42.5867L90.1529 40.2972L89.8449 33.429C89.5369 27.1795 89.4137 26.3751 88.0587 24.9519C87.1964 24.0856 86.2109 23.3431 85.7181 23.3431C85.1022 23.3431 84.9174 21.5487 84.9174 15.1136C84.9174 6.07965 84.3015 3.79022 81.037 1.43892C79.3739 0.201397 78.3884 0.139521 63.1748 0.0157682C54.3052 -0.0461081 46.4212 0.0776445 45.6205 0.32515ZM112.203 185.397C113.928 182.18 113.856 179.503 113.762 176.487C101.524 166.115 98.9299 149.803 98.9299 136.872C98.9299 123.941 105.397 109.429 115.329 98.2909C112.365 78.5017 103.332 58.4717 92.0007 49.4549C91.7326 49.2417 91.4798 49.0386 91.239 48.8453C90.0543 47.8937 89.1619 47.1768 88.1737 46.637C85.1561 44.9886 81.2453 44.9906 65.3928 44.9986C65.3878 44.9986 65.3828 44.9986 65.3778 44.9986C64.2162 44.9992 62.9906 44.9998 61.6965 44.9998H38.414L35.7655 46.5467C22.338 54.2813 11.8055 73.8961 7.55548 99.1416C6.50838 105.267 6.38519 109.784 6.38519 144.002V182.056L7.80185 184.964C9.52648 188.491 13.5301 192.08 16.1786 192.575C17.2257 192.76 37.7981 192.884 61.9429 192.76L105.736 192.575L108.138 190.657C109.432 189.667 111.28 187.253 112.203 185.397ZM78.6964 15.7323C78.6348 12.2673 78.3884 8.92595 78.0189 8.30719C77.5261 7.37905 76.1095 7.25529 62.1893 7.25529C53.8125 7.25529 46.7292 7.44092 46.5444 7.68843C46.298 7.87406 46.1133 11.2154 46.1133 15.1136V22.1056H78.8196L78.6964 15.7323ZM83.5623 35.1615C83.6855 33.3052 83.6239 31.1395 83.3775 30.3352L83.0696 28.912H41.1857V38.8122L62.3124 38.6885L83.3775 38.5028L83.5623 35.1615Z" fill="black"></path>
    <path fill-rule="evenodd" clip-rule="evenodd" d="M78.6964 15.7323C78.6348 12.2673 78.3884 8.92595 78.0189 8.30719C77.5261 7.37905 76.1095 7.25529 62.1893 7.25529C53.8125 7.25529 46.7292 7.44092 46.5444 7.68843C46.298 7.87406 46.1133 11.2154 46.1133 15.1136V22.1056H78.8196L78.6964 15.7323Z" fill='currentColor'></path>
    <path d="M83.3775 30.3352C83.6239 31.1395 83.6855 33.3052 83.5623 35.1615L83.3775 38.5028L62.3124 38.6885L41.1857 38.8122V28.912H83.0696L83.3775 30.3352Z" fill="#44D324"></path>
    <path fill-rule="evenodd" clip-rule="evenodd" d="M35.4334 85.9435C29.5212 88.0079 22.3014 97.527 18.6063 107.964C15.0248 117.999 14.8543 119.719 14.8543 145.065C14.8543 172.132 14.8543 172.132 19.8569 177.293C22.2446 179.701 24.0069 180.905 26.4514 181.823C29.7486 183.027 30.3171 183.084 55.4441 182.912L81.0827 182.74L84.3231 181.135C88.3025 179.185 91.7134 175.4 93.4189 171.042C95.1243 166.799 95.238 156.362 93.6463 151.488C91.9977 146.556 90.8038 144.893 81.9355 135.661C72.9534 126.256 71.248 123.733 64.0282 109.34C56.6379 94.5451 51.8626 88.4093 45.9504 86.1729C42.1415 84.7966 38.9012 84.682 35.4334 85.9435ZM58.5707 111.92C52.5448 99.9928 49.4181 95.4053 45.7798 92.9395C44.586 92.0793 42.8237 91.2765 41.8573 91.1045C34.6944 89.9576 26.6219 99.9355 22.3583 115.189L20.8234 120.809V167.831L22.1877 170.583C23.0404 172.304 24.348 173.909 25.826 174.884L28.1568 176.432H80.6848L83.1861 174.712C87.8477 171.444 90.1217 164.218 88.8141 157.05C87.6203 150.914 85.9717 148.334 77.7855 140.019C68.9172 130.959 66.4158 127.289 58.5707 111.92Z" fill="black"></path>
    <path fill-rule="evenodd" clip-rule="evenodd" d="M113.762 176.487C113.856 179.503 113.928 182.18 112.203 185.397C111.28 187.253 109.432 189.667 108.138 190.657L105.736 192.575L61.9429 192.76C37.7981 192.884 17.2257 192.76 16.1786 192.575C13.5301 192.08 9.52648 188.491 7.80185 184.964L6.38519 182.056V144.002C6.38519 109.784 6.50838 105.267 7.55548 99.1416C11.8055 73.8961 22.338 54.2813 35.7655 46.5467L38.414 44.9998H61.6965C62.9906 44.9998 64.2162 44.9992 65.3778 44.9986L65.3928 44.9986C81.2453 44.9906 85.1561 44.9886 88.1737 46.637C89.1619 47.1768 90.0543 47.8937 91.239 48.8453C91.4798 49.0386 91.7326 49.2417 92.0007 49.4549C103.332 58.4717 112.365 78.5017 115.329 98.2909C105.397 109.429 98.9299 123.941 98.9299 136.872C98.9299 149.803 101.524 166.115 113.762 176.487ZM35.4334 85.9435C29.5212 88.0079 22.3014 97.527 18.6063 107.964C15.0248 117.999 14.8543 119.719 14.8543 145.065C14.8543 172.132 14.8543 172.132 19.8569 177.293C22.2446 179.701 24.0069 180.905 26.4514 181.823C29.7486 183.027 30.3171 183.084 55.4441 182.912L81.0827 182.74L84.3231 181.135C88.3025 179.185 91.7134 175.4 93.4189 171.042C95.1243 166.799 95.238 156.362 93.6463 151.488C91.9977 146.556 90.8038 144.893 81.9355 135.661C72.9534 126.256 71.248 123.733 64.0282 109.34C56.6379 94.5451 51.8626 88.4093 45.9504 86.1729C42.1415 84.7966 38.9012 84.682 35.4334 85.9435ZM68.9318 70.7903C69.1486 65.3715 70.4492 62.5254 73.4839 60.7738C76.1935 59.1866 80.0412 59.1318 82.8591 60.6096C88.0074 63.2369 94.6188 73.9649 97.8703 84.9665C99.1167 89.1811 99.3335 90.9326 99.3877 97.0081C99.4419 105.054 99.0084 106.532 95.5943 109.159C93.9685 110.363 93.1014 110.637 90.8254 110.582C84.4307 110.473 79.716 106.368 75.1097 96.8439C71.0453 88.579 68.6067 78.1794 68.9318 70.7903Z" fill='currentColor'></path>
    <path fill-rule="evenodd" clip-rule="evenodd" d="M73.4839 60.7738C70.4492 62.5254 69.1486 65.3715 68.9318 70.7903C68.6067 78.1794 71.0453 88.579 75.1097 96.8439C79.716 106.368 84.4307 110.473 90.8254 110.582C93.1014 110.637 93.9685 110.363 95.5943 109.159C99.0084 106.532 99.4419 105.054 99.3877 97.0081C99.3335 90.9326 99.1167 89.1811 97.8703 84.9665C94.6188 73.9649 88.0074 63.2369 82.8591 60.6096C80.0412 59.1318 76.1935 59.1866 73.4839 60.7738ZM92.126 86.6085C90.717 80.9709 86.1649 71.7208 83.2927 68.4914C81.5044 66.521 80.5831 65.9189 78.8489 65.7547C75.8684 65.3715 74.8387 66.2473 74.4594 69.6408C73.8091 75.0596 76.4645 86.5538 80.0954 93.9977C82.5882 99.1975 87.4655 104.397 89.8499 104.397C94.1853 104.397 94.9982 98.1028 92.126 86.6085Z" fill="black"></path>
    <path d="M45.7798 92.9395C49.4181 95.4053 52.5448 99.9928 58.5707 111.92C66.4158 127.289 68.9172 130.959 77.7855 140.019C85.9717 148.334 87.6203 150.914 88.8141 157.05C90.1217 164.218 87.8477 171.444 83.1861 174.712L80.6848 176.432H28.1568L25.826 174.884C24.348 173.909 23.0404 172.304 22.1877 170.583L20.8234 167.831V120.809L22.3583 115.189C26.6219 99.9355 34.6944 89.9576 41.8573 91.1045C42.8237 91.2765 44.586 92.0793 45.7798 92.9395Z" fill="#44D324"></path>
  </symbol>
  <symbol fill="none" xmlns="http://www.w3.org/2000/svg" viewBox="0 0 241 227" id="equipment">
    <path fill-rule="evenodd" clip-rule="evenodd" d="M27.781 172.966C14.6816 173.135 3.9499 185.499 5.14262 199.19L5.17016 199.486C6.39692 211.988 16.0445 221.069 28.0906 221.045L28.3829 221.042C40.7295 220.862 50.63 210.753 51.0389 197.799L51.0467 197.484C51.3 184.148 40.8718 172.987 28.091 172.964L27.781 172.966ZM28.8593 183.555C21.5136 183.15 15.7756 190.313 15.8877 197.489L15.8968 197.808C16.1551 204.498 21.2314 210.833 28.0721 210.899L28.3898 210.898C35.0366 210.772 40.3117 204.71 40.7189 198.056L40.7349 197.725C40.9831 190.878 35.9654 184.153 29.1886 183.577L28.8593 183.555Z" fill="#44D324"></path>
    <path d="M87.4501 157.526C87.4501 154.02 86.069 150.268 83.7001 147.404C81.3477 144.56 78.1639 142.749 74.6109 142.749H13.993C13.7444 142.749 13.4237 142.858 13.1856 143.089C13.0001 143.27 12.7302 143.652 12.7301 144.513L12.7318 145.226C12.7494 148.75 12.8945 151.663 13.0426 154.631C13.1687 157.158 13.2965 159.725 13.3431 162.694C13.8266 162.456 14.4833 162.151 15.1243 162.001L16.2754 161.735C22.0097 160.439 27.4227 159.628 32.666 160.16C38.3437 160.735 43.7019 162.869 49.0431 167.374L49.753 167.979C53.2553 170.995 56.046 173.901 58.1286 177.336C60.3715 181.036 61.6961 185.187 62.3801 190.474L62.4253 190.834C63.2751 197.905 62.0426 203.643 60.3226 209.429L59.9666 210.607C59.9368 210.704 59.9124 210.803 59.8914 210.9H87.4501V209.797V157.526Z" fill='currentColor'></path>
    <path fill-rule="evenodd" clip-rule="evenodd" d="M124.083 179.13L124.078 179.13H124.077L121.337 179.391V176.493V120.914C121.337 114.667 120.779 109.629 119.301 105.069C117.877 100.678 115.555 96.5906 111.839 92.2436L111.475 91.8224C108.109 87.9635 103.182 84.7804 98.5282 82.5497C96.2212 81.4439 94.0361 80.5985 92.2258 80.0344C90.3463 79.4489 89.0689 79.2298 88.5017 79.2298H86.6218L86.0824 77.3426C85.9866 77.0074 85.9229 76.5981 85.881 76.3251C85.8579 76.1746 85.8281 75.9715 85.7963 75.7554C85.7672 75.5571 85.7365 75.3479 85.7079 75.1586C85.5742 74.2732 85.3902 73.1545 85.1057 71.8804C84.5344 69.3226 83.5675 66.1882 81.8387 63.1738C80.1194 60.1758 77.6514 57.3023 74.0465 55.2063C70.5552 53.1764 65.8631 51.7974 59.507 51.8687L58.8867 51.8804C51.5054 52.0697 46.2787 54.1885 42.5347 57.1073C38.7718 60.0408 36.3404 63.913 34.772 67.8653C33.1997 71.8277 32.5229 75.8049 32.2451 78.8184C32.1068 80.318 32.0691 81.5606 32.0654 82.4183C32.0636 82.8466 32.0702 83.1777 32.0769 83.3953C32.0803 83.5039 32.0836 83.5841 32.086 83.6339L32.0868 83.6514C32.0871 83.6574 32.0873 83.6628 32.0875 83.6676C32.0879 83.6753 32.0882 83.6813 32.0884 83.6856C32.0885 83.6873 32.0888 83.6887 32.0888 83.6899V83.6934L32.2064 85.5926L30.5214 86.312C29.4696 86.761 27.8575 87.8452 25.9702 89.5703C24.1184 91.2629 22.125 93.4597 20.2946 95.9909C16.5897 101.114 13.7825 107.283 13.7825 113.195V129.516H67.6684L67.6651 132.005V132.046C67.6684 129.625 67.6691 129.52 67.6696 129.516H67.7301C67.7657 129.516 67.8161 129.516 67.8805 129.517C68.0094 129.519 68.1945 129.523 68.4297 129.53C68.9 129.545 69.5716 129.573 70.3952 129.627C72.0386 129.737 74.3052 129.954 76.7926 130.387C81.602 131.225 87.8742 132.97 91.7308 136.875L92.0778 137.232C99.2499 144.746 99.4474 153.048 99.4474 162.599V209.796V212.444H90.3968V213.546C90.397 217.168 93.4178 221.707 99.4474 221.707C103.962 221.707 107.235 218.348 107.235 213.546C107.235 211.958 108.152 210.905 109.088 210.384C109.868 209.951 110.724 209.827 111.305 209.778C111.939 209.724 112.589 209.736 113.113 209.753C113.23 209.757 113.338 209.762 113.439 209.766C113.528 209.769 113.61 209.773 113.688 209.776C113.969 209.788 114.187 209.797 114.391 209.797C118.531 209.797 121.337 206.186 121.337 201.636V191.043L123.86 191.049H123.862C123.865 191.049 123.868 191.049 123.873 191.049C123.881 191.049 123.89 191.049 123.903 191.049C123.946 191.048 124.018 191.045 124.116 191.039C124.312 191.027 124.607 191.003 124.965 190.951C125.695 190.845 126.624 190.638 127.517 190.245C128.412 189.852 129.169 189.319 129.697 188.622C130.194 187.964 130.598 187.017 130.598 185.536C130.598 183.502 130.13 182.244 129.601 181.443C129.064 180.632 128.334 180.093 127.514 179.732C126.68 179.365 125.805 179.207 125.109 179.149C124.769 179.12 124.49 179.118 124.306 179.121C124.214 179.123 124.147 179.126 124.11 179.128C124.098 179.129 124.089 179.129 124.083 179.13ZM58.7485 57.8396C48.2276 57.2553 39.2509 65.3569 39.2509 75.4804V78.127H79.0314V75.4804C79.0314 70.4801 77.0112 66.1385 73.3637 63.0213C69.8813 60.0452 65.0463 58.2842 59.3068 57.8749L58.7485 57.8396ZM87.6405 117.925C90.0198 116.089 92.081 113.237 92.0811 109.666V101.726C92.0811 97.4408 89.2222 94.5786 86.2674 92.9359C83.2747 91.2721 79.5952 90.478 76.5056 90.4779H57.3521C54.6101 90.4779 51.1977 91.7608 48.5189 93.5334C47.1487 94.4401 45.8351 95.5616 44.838 96.8675C43.8495 98.1622 43.0395 99.8194 43.0395 101.726V109.666C43.0396 112.919 45.2757 115.697 47.4098 117.448C49.6118 119.255 52.5685 120.694 55.2473 120.694C61.0169 120.694 64.6858 120.748 68.0733 120.803L68.652 120.813C71.8281 120.865 74.855 120.914 79.2419 120.914C82.1511 120.914 85.2469 119.772 87.6405 117.925Z" fill='currentColor'></path>
    <path d="M170.168 47.6903C170.167 29.2691 162.205 14.1637 145.959 8.21095L145.574 8.07181C132.712 3.50999 118.387 4.0371 105.987 13.6033L105.398 14.0659C91.0219 25.5482 91.0242 41.0757 91.0274 61.6709C91.0274 61.9355 91.0274 62.201 91.0275 62.4673L91.0324 63.0346C91.0791 65.752 91.4594 66.7103 91.6872 67.0326L91.688 67.0336C91.7758 67.1579 91.9522 67.4075 93.3768 67.5525L93.6897 67.5814C95.1977 67.7061 95.8779 67.5361 96.1891 67.2773C96.337 67.1543 97.0714 66.416 96.7601 63.0975L96.7268 62.768C95.1188 48.0294 95.2919 31.4291 108.622 20.4654L109.142 20.0432C120.088 11.2645 132.618 8.26547 145.564 14.6384L145.923 14.8185C161.067 22.5177 163.853 39.5754 163.853 54.9685C163.853 56.8956 163.847 58.7267 163.842 60.4824C163.842 60.4837 163.842 60.4849 163.842 60.4861C163.798 74.3694 163.769 83.5346 166.744 98.0835L167.287 100.725C170.057 114.13 173.613 130.347 176.548 143.526C178.112 150.552 179.499 156.711 180.495 161.112C180.993 163.313 181.394 165.075 181.669 166.286C181.807 166.891 181.914 167.36 181.986 167.676C181.997 167.725 182.008 167.771 182.017 167.813C182.031 167.874 182.043 167.927 182.053 167.972C182.059 167.995 182.063 168.017 182.068 168.036C182.073 168.06 182.078 168.08 182.082 168.097L182.089 168.127L182.091 168.135C182.092 168.141 182.093 168.146 182.094 168.149C182.095 168.152 182.095 168.154 182.095 168.156L182.096 168.156L182.096 168.157L182.654 170.601L180.768 171.184C180.749 171.302 180.732 171.467 180.722 171.691C180.67 172.85 180.902 174.667 181.454 177.217C182.223 180.778 183.486 185.234 184.955 190.42C185.576 192.611 186.234 194.933 186.907 197.372L187.84 200.754H184.377C184.307 200.754 184.203 200.755 184.067 200.756C183.794 200.757 183.397 200.761 182.899 200.768C181.902 200.781 180.504 200.808 178.906 200.863C175.89 200.966 172.227 201.163 169.194 201.537L168.597 201.614C162.62 202.422 158.146 206.664 158.171 211.989L158.175 212.482C158.208 214.924 158.41 217.058 159.095 218.578C159.431 219.322 159.849 219.835 160.371 220.181C160.895 220.527 161.705 220.825 163.012 220.825H232.89C233.856 220.825 234.324 220.527 234.579 220.268C234.872 219.971 235.139 219.457 235.25 218.659C235.48 217.011 234.926 215.009 234.029 213.859L233.941 213.75C232.675 212.243 231.553 210.564 230.524 209.02L230.45 208.909C229.421 207.363 228.481 205.952 227.465 204.708C225.434 202.221 223.389 200.754 220.472 200.754H199.632L199.255 198.581C197.775 190.056 196.221 181.442 194.427 175.187C193.521 172.026 192.618 169.706 191.755 168.327C191.407 167.771 191.143 167.498 190.996 167.376L188.515 168.243L187.908 165.377L190.374 164.804L187.908 165.376V165.375L187.907 165.369L187.902 165.346L187.895 165.314C187.891 165.297 187.887 165.277 187.882 165.253L187.86 165.149C187.845 165.078 187.827 164.992 187.805 164.89C187.737 164.57 187.637 164.097 187.507 163.484C187.246 162.258 186.866 160.473 186.39 158.241C185.436 153.777 184.095 147.522 182.543 140.357C179.633 126.92 175.986 110.295 172.77 96.2916L172.133 93.5273C169.148 80.6254 169.485 71.2555 169.876 60.3767C170.018 56.4272 170.168 52.2788 170.168 47.6903Z" fill='currentColor'></path>
    <path d="M55.9885 102.388C55.9466 102.438 55.8816 102.531 55.799 102.696C55.5134 103.265 55.2886 104.216 55.2518 105.345C55.2152 106.469 55.3751 107.464 55.6045 108.07C55.6083 108.08 55.6123 108.09 55.6162 108.099C55.6194 108.107 55.6225 108.115 55.6255 108.122H79.1313C79.1719 108.073 79.2343 107.982 79.3134 107.823C79.5879 107.271 79.7985 106.343 79.7985 105.255C79.7985 104.167 79.588 103.239 79.3134 102.686C79.2346 102.528 79.1723 102.437 79.1317 102.388H55.9885Z" fill="#44D324"></path>
    <path fill-rule="evenodd" clip-rule="evenodd" d="M87.0296 101.726C87.0296 100.274 86.1011 98.8351 83.8999 97.6114C81.7367 96.4088 78.8912 95.7712 76.5056 95.7712H57.3521C55.8515 95.7712 53.3702 96.5832 51.2161 98.0086C50.17 98.7008 49.3325 99.4541 48.7825 100.174C48.2239 100.906 48.091 101.427 48.091 101.726V109.666C48.0911 110.434 48.777 111.847 50.5242 113.281C52.2038 114.659 54.0883 115.4 55.2473 115.4C61.0537 115.4 64.7516 115.455 68.1518 115.511L68.7482 115.52C71.9149 115.572 74.9044 115.621 79.2419 115.621C80.9838 115.621 83.0445 114.898 84.6448 113.663C86.2593 112.417 87.0295 110.969 87.0296 109.666V101.726ZM83.7939 100.242C83.0337 98.7118 81.5591 97.0946 79.2419 97.0945H55.8787C53.5546 97.0945 52.089 98.7165 51.3283 100.232C50.5763 101.731 50.2562 103.537 50.2032 105.164C50.15 106.798 50.3557 108.56 50.9086 110.021C51.3919 111.298 52.6032 113.415 55.0368 113.415H79.2419C81.5591 113.415 83.0337 111.798 83.7939 110.268C84.5467 108.753 84.85 106.924 84.85 105.255C84.85 103.586 84.5468 101.757 83.7939 100.242Z" fill="#44D324"></path>
    <path fill-rule="evenodd" clip-rule="evenodd" d="M92.0811 109.666C92.081 113.237 90.0198 116.089 87.6405 117.925C85.2469 119.772 82.1511 120.914 79.2419 120.914C74.855 120.914 71.8281 120.865 68.652 120.813L68.0733 120.803C64.6858 120.748 61.0169 120.694 55.2473 120.694C52.5685 120.694 49.6118 119.255 47.4098 117.448C45.2757 115.697 43.0396 112.919 43.0395 109.666V101.726C43.0395 99.8194 43.8495 98.1622 44.838 96.8675C45.8351 95.5616 47.1487 94.4401 48.5189 93.5334C51.1977 91.7608 54.6101 90.4779 57.3521 90.4779H76.5056C79.5952 90.478 83.2747 91.2721 86.2674 92.9359C89.2222 94.5786 92.0811 97.4408 92.0811 101.726V109.666ZM83.8999 97.6114C86.1011 98.8351 87.0296 100.274 87.0296 101.726V109.666C87.0295 110.969 86.2593 112.417 84.6448 113.663C83.0445 114.898 80.9838 115.621 79.2419 115.621C74.9044 115.621 71.9149 115.572 68.7482 115.52L68.1518 115.511C64.7516 115.455 61.0537 115.4 55.2473 115.4C54.0883 115.4 52.2038 114.659 50.5242 113.281C48.777 111.847 48.0911 110.434 48.091 109.666V101.726C48.091 101.427 48.2239 100.906 48.7825 100.174C49.3325 99.4541 50.17 98.7008 51.2161 98.0086C53.3702 96.5832 55.8515 95.7712 57.3521 95.7712H76.5056C78.8912 95.7712 81.7367 96.4088 83.8999 97.6114Z" fill="black"></path>
    <path fill-rule="evenodd" clip-rule="evenodd" d="M28.4675 167.674C43.8946 167.913 56.4052 181.41 56.0974 197.589L56.0875 197.974C55.5888 213.772 43.4793 226.114 28.4556 226.335L28.1 226.338C13.4733 226.366 1.63966 215.246 0.145388 200.031L0.11209 199.671C-1.36191 182.751 11.9017 167.642 28.0996 167.671L28.4675 167.674ZM170.168 47.6903C170.167 29.2691 162.205 14.1637 145.959 8.21095L145.574 8.07181C132.712 3.50999 118.387 4.0371 105.987 13.6033L105.398 14.0659C91.0219 25.5482 91.0242 41.0757 91.0274 61.6709L91.0275 62.4673L91.0324 63.0346C91.0791 65.752 91.4594 66.7103 91.6872 67.0326L91.688 67.0336C91.7758 67.1579 91.9522 67.4075 93.3768 67.5525L93.6897 67.5814C95.1977 67.7061 95.8779 67.5361 96.1891 67.2773C96.337 67.1543 97.0714 66.416 96.7601 63.0975L96.7268 62.768C95.1188 48.0294 95.2919 31.4291 108.622 20.4654L109.142 20.0432C120.088 11.2645 132.618 8.26547 145.564 14.6384L145.923 14.8185C161.067 22.5177 163.853 39.5754 163.853 54.9685C163.853 56.8956 163.847 58.7267 163.842 60.4824V60.4861C163.798 74.3694 163.769 83.5346 166.744 98.0835L167.287 100.725C170.057 114.13 173.613 130.347 176.548 143.526C178.112 150.552 179.499 156.711 180.495 161.112C180.993 163.313 181.394 165.075 181.669 166.286C181.807 166.891 181.914 167.36 181.986 167.676L182.017 167.813L182.053 167.972L182.068 168.036C182.073 168.06 182.078 168.08 182.082 168.097L182.089 168.127L182.091 168.135L182.094 168.149C182.095 168.152 182.095 168.154 182.095 168.156L182.096 168.156L182.096 168.157L182.654 170.601L180.768 171.184C180.749 171.302 180.732 171.467 180.722 171.691C180.67 172.85 180.902 174.667 181.454 177.217C182.223 180.778 183.486 185.234 184.955 190.42C185.576 192.611 186.234 194.933 186.907 197.372L187.84 200.754H184.377C184.307 200.754 184.203 200.755 184.067 200.756C183.794 200.757 183.397 200.761 182.899 200.768C181.902 200.781 180.504 200.808 178.906 200.863C175.89 200.966 172.227 201.163 169.194 201.537L168.597 201.614C162.62 202.422 158.146 206.664 158.171 211.989L158.175 212.482C158.208 214.924 158.41 217.058 159.095 218.578C159.431 219.322 159.849 219.835 160.371 220.181C160.895 220.527 161.705 220.825 163.012 220.825H232.89C233.856 220.825 234.324 220.527 234.579 220.268C234.872 219.971 235.139 219.457 235.25 218.659C235.48 217.011 234.926 215.009 234.029 213.859L233.941 213.75C232.675 212.243 231.553 210.564 230.524 209.02L230.45 208.909C229.421 207.363 228.481 205.952 227.465 204.708C225.434 202.221 223.389 200.754 220.472 200.754H199.632L199.255 198.581C197.775 190.056 196.221 181.442 194.427 175.187C193.521 172.026 192.618 169.706 191.755 168.327C191.407 167.771 191.143 167.498 190.996 167.376L188.515 168.243L187.908 165.377L190.374 164.804L187.908 165.376V165.375L187.907 165.369L187.902 165.346L187.895 165.314C187.891 165.297 187.887 165.277 187.882 165.253L187.86 165.149L187.805 164.89C187.737 164.57 187.637 164.097 187.507 163.484C187.246 162.258 186.866 160.473 186.39 158.241C185.436 153.777 184.095 147.522 182.543 140.357C179.633 126.92 175.986 110.295 172.77 96.2916L172.133 93.5273C169.148 80.6254 169.485 71.2555 169.876 60.3767C170.018 56.4272 170.168 52.2788 170.168 47.6903ZM27.781 172.966C14.6816 173.135 3.9499 185.499 5.14262 199.19L5.17016 199.486C6.39692 211.988 16.0445 221.069 28.0906 221.045L28.3829 221.042C40.7295 220.862 50.63 210.753 51.0389 197.799L51.0467 197.484C51.3 184.148 40.8718 172.987 28.091 172.964L27.781 172.966ZM15.8877 197.489C15.7756 190.313 21.5136 183.15 28.8593 183.555L29.1886 183.577C35.9654 184.153 40.9831 190.878 40.7349 197.725L40.7189 198.056C40.3117 204.71 35.0366 210.772 28.3898 210.898L28.0721 210.899C21.2314 210.833 16.1551 204.498 15.8968 197.808L15.8877 197.489ZM28.5942 188.841C24.6648 188.624 20.8661 192.749 20.9388 197.402L20.9446 197.609C21.1126 201.941 24.4099 205.571 28.1185 205.606L28.2957 205.606C32.0151 205.53 35.4182 201.958 35.6777 197.717L35.688 197.509C35.8411 193.207 32.5858 189.184 28.7787 188.853L28.5942 188.841ZM124.078 179.13L124.08 179.13H124.083L124.078 179.13ZM124.083 179.13L124.087 179.129H124.089L124.089 179.129L124.08 179.13C124.079 179.13 124.077 179.13 124.077 179.13L121.337 179.391V176.493V120.914C121.337 114.667 120.779 109.629 119.301 105.069C117.877 100.678 115.555 96.5906 111.839 92.2436L111.475 91.8224C108.109 87.9635 103.182 84.7804 98.5282 82.5497C96.2212 81.4439 94.0361 80.5985 92.2258 80.0344C90.3463 79.4489 89.0689 79.2298 88.5017 79.2298H86.6218L86.0824 77.3426C85.9866 77.0074 85.9229 76.5981 85.881 76.3251C85.8579 76.1746 85.8281 75.9715 85.7963 75.7554C85.7672 75.5571 85.7365 75.3479 85.7079 75.1586C85.5742 74.2732 85.3902 73.1545 85.1057 71.8804C84.5344 69.3226 83.5675 66.1882 81.8387 63.1738C80.1194 60.1758 77.6514 57.3023 74.0465 55.2063C70.5552 53.1764 65.8631 51.7974 59.507 51.8687L58.8867 51.8804C51.5054 52.0697 46.2787 54.1885 42.5347 57.1073C38.7718 60.0408 36.3404 63.913 34.772 67.8653C33.1997 71.8277 32.5229 75.8049 32.2451 78.8184C32.1068 80.318 32.0691 81.5606 32.0654 82.4183C32.0636 82.8466 32.0702 83.1777 32.0769 83.3953C32.0803 83.5039 32.0836 83.5841 32.086 83.6339L32.0868 83.6514L32.0875 83.6676L32.0884 83.6856C32.0885 83.6873 32.0888 83.6887 32.0888 83.6899V83.6934L32.2064 85.5926L30.5214 86.312C29.4696 86.761 27.8575 87.8452 25.9702 89.5703C24.1184 91.2629 22.125 93.4597 20.2946 95.9909C16.5897 101.114 13.7825 107.283 13.7825 113.195V129.516H67.6684L67.6651 132.005V132.046C67.6684 129.625 67.6691 129.52 67.6696 129.516H67.7301C67.7657 129.516 67.8161 129.516 67.8805 129.517C68.0094 129.519 68.1945 129.523 68.4297 129.53C68.9 129.545 69.5716 129.573 70.3952 129.627C72.0386 129.737 74.3052 129.954 76.7926 130.387C81.602 131.225 87.8742 132.97 91.7308 136.875L92.0778 137.232C99.2499 144.746 99.4474 153.048 99.4474 162.599V209.796V212.444H90.3968V213.546C90.397 217.168 93.4178 221.707 99.4474 221.707C103.962 221.707 107.235 218.348 107.235 213.546C107.235 211.958 108.152 210.905 109.088 210.384C109.868 209.951 110.724 209.827 111.305 209.778C111.939 209.724 112.589 209.736 113.113 209.753C113.23 209.757 113.338 209.762 113.439 209.766C113.528 209.769 113.61 209.773 113.688 209.776C113.969 209.788 114.187 209.797 114.391 209.797C118.531 209.797 121.337 206.186 121.337 201.636V191.043L123.86 191.049H123.862L123.873 191.049C123.881 191.049 123.89 191.049 123.903 191.049C123.946 191.048 124.018 191.045 124.116 191.039C124.312 191.027 124.607 191.003 124.965 190.951C125.695 190.845 126.624 190.638 127.517 190.245C128.412 189.852 129.169 189.319 129.697 188.622C130.194 187.964 130.598 187.017 130.598 185.536C130.598 183.502 130.13 182.244 129.601 181.443C129.064 180.632 128.334 180.093 127.514 179.732C126.68 179.365 125.805 179.207 125.109 179.149C124.769 179.12 124.49 179.118 124.306 179.121C124.214 179.123 124.147 179.126 124.11 179.128C124.098 179.129 124.089 179.129 124.083 179.13ZM39.2509 75.4804C39.2509 65.3569 48.2276 57.2553 58.7485 57.8396L59.3068 57.8749C65.0463 58.2842 69.8813 60.0452 73.3637 63.0213C77.0112 66.1385 79.0314 70.4801 79.0314 75.4804V78.127H39.2509V75.4804ZM58.4813 63.1255C51.4925 62.7374 45.9856 67.2984 44.6263 72.8337H73.6876C73.1727 70.5985 71.9832 68.6717 70.1711 67.123C67.7049 65.0154 63.9589 63.5127 58.9681 63.1565L58.4813 63.1255ZM87.4501 157.526C87.4501 154.02 86.069 150.268 83.7001 147.404C81.3477 144.56 78.1639 142.749 74.6109 142.749H13.993C13.7444 142.749 13.4237 142.858 13.1856 143.089C13.0001 143.27 12.7302 143.652 12.7301 144.513L12.7318 145.226C12.7494 148.75 12.8945 151.663 13.0426 154.631C13.1687 157.158 13.2965 159.725 13.3431 162.694C13.8266 162.456 14.4833 162.151 15.1243 162.001L16.2754 161.735C22.0097 160.439 27.4227 159.628 32.666 160.16C38.3437 160.735 43.7019 162.869 49.0431 167.374L49.753 167.979C53.2553 170.995 56.046 173.901 58.1286 177.336C60.3715 181.036 61.6961 185.187 62.3801 190.474L62.4253 190.834C63.2751 197.905 62.0426 203.643 60.3226 209.429L59.9666 210.607C59.9368 210.704 59.9124 210.803 59.8914 210.9H87.4501V209.797V157.526ZM175.219 47.6903C175.219 52.6899 175.062 57.0488 174.917 61.092C174.536 71.7027 174.233 80.1397 177.042 92.2803L177.681 95.0514C180.905 109.091 184.559 125.743 187.47 139.186C189.023 146.357 190.365 152.618 191.319 157.086C191.787 159.275 192.161 161.034 192.421 162.259C192.787 162.379 193.14 162.545 193.474 162.752C194.525 163.401 195.338 164.401 195.978 165.424C197.259 167.47 198.329 170.401 199.265 173.664C200.994 179.694 202.481 187.672 203.845 195.461H220.472C225.464 195.461 228.786 198.184 231.303 201.266C232.485 202.714 233.552 204.316 234.537 205.796L234.537 205.796L234.666 205.99C235.717 207.568 236.684 209.005 237.733 210.254L237.915 210.478C239.769 212.835 240.676 216.362 240.249 219.425C240.021 221.059 239.384 222.76 238.095 224.069C236.768 225.416 234.977 226.118 232.89 226.118H163.012C160.951 226.118 159.159 225.639 157.674 224.657C156.187 223.673 155.189 222.305 154.528 220.84C153.345 218.216 153.153 215.051 153.123 212.514L153.119 212.015C153.077 203.089 160.437 197.38 167.95 196.365L168.593 196.282C171.852 195.879 175.69 195.677 178.742 195.573C179.602 195.543 180.406 195.522 181.123 195.506C180.802 194.365 180.485 193.244 180.174 192.148L180.174 192.147C178.676 186.86 177.337 182.131 176.527 178.386C175.962 175.77 175.589 173.361 175.676 171.441C175.726 170.317 175.977 168.857 176.805 167.732L176.782 167.628L176.756 167.514C176.48 166.301 176.079 164.537 175.58 162.334C174.583 157.927 173.195 151.762 171.629 144.729C168.693 131.544 165.129 115.292 162.35 101.843L161.805 99.1928C158.711 84.0649 158.743 74.3645 158.79 60.4698V60.4642C158.796 58.706 158.802 56.8806 158.802 54.9685C158.802 39.7256 155.95 25.7969 143.706 19.5746L143.416 19.429C132.561 14.0852 122.02 16.3751 112.207 24.2501L111.741 24.6292C100.718 33.6955 100.15 47.5429 101.746 62.1671L101.785 62.5505C102.156 66.4883 101.529 69.5936 99.3294 71.423C97.3691 73.0534 94.855 73.0013 93.2062 72.8518L92.8885 72.8212C92.1082 72.7418 91.2228 72.609 90.3524 72.2785C90.4866 72.9949 90.5907 73.6372 90.6743 74.1846C91.5954 74.3643 92.6125 74.6324 93.6654 74.9604C95.7162 75.5994 98.1222 76.534 100.63 77.7358C105.605 80.1207 111.203 83.6645 115.203 88.2509L115.603 88.7144C119.694 93.4994 122.406 98.1917 124.084 103.366C125.807 108.682 126.389 114.358 126.389 120.914V173.975C127.296 174.111 128.373 174.369 129.472 174.853C130.968 175.512 132.553 176.614 133.753 178.428C134.96 180.254 135.65 182.608 135.65 185.536C135.65 188.149 134.896 190.268 133.657 191.908C132.448 193.508 130.89 194.503 129.469 195.127C128.368 195.611 127.288 195.898 126.389 196.07V201.636C126.389 208.296 122.039 215.09 114.391 215.09C114.088 215.09 113.701 215.074 113.353 215.06L113.352 215.06L113.348 215.059C113.205 215.053 113.069 215.048 112.948 215.044C112.682 215.035 112.438 215.03 112.216 215.032C111.555 222.022 106.247 227 99.4474 227C91.801 227 86.8325 221.815 85.6298 216.193H59.0355C58.0835 216.193 57.1211 215.916 56.3215 215.232C55.5403 214.564 55.1388 213.699 54.9472 212.938C54.5883 211.511 54.8416 210.015 55.1572 208.987L55.498 207.86C57.1037 202.456 58.0989 197.64 57.4478 191.793L57.3747 191.185C56.7647 186.47 55.6317 183.089 53.8648 180.174C52.1882 177.409 49.8553 174.92 46.5494 172.072L45.8752 171.497C41.289 167.628 36.8597 165.902 32.1801 165.428C27.7134 164.976 22.9152 165.651 17.352 166.907L16.2289 167.166L16.2283 167.166C16.2269 167.167 16.2238 167.167 16.2191 167.169C16.2165 167.169 16.2135 167.17 16.21 167.171C16.2025 167.173 16.1934 167.176 16.1826 167.18C16.1733 167.183 16.1627 167.187 16.1508 167.191C16.0983 167.21 16.0299 167.236 15.9432 167.273C15.7647 167.35 15.556 167.451 15.2986 167.58C15.2273 167.615 15.1498 167.655 15.0674 167.696L15.0642 167.698C14.6237 167.921 14.0434 168.215 13.5096 168.424C13.178 168.554 12.7649 168.693 12.3174 168.767C11.8863 168.838 11.2424 168.88 10.5501 168.636C9.77116 168.362 9.1294 167.792 8.73843 167.011C8.38946 166.315 8.31051 165.594 8.31049 165.025C8.31049 161.176 8.15603 158.072 7.99806 154.907L7.99722 154.89C7.83954 151.73 7.67872 148.507 7.67864 144.513L7.6807 144.306C7.72775 142.174 8.50088 140.424 9.74849 139.21C10.9839 138.008 12.5581 137.456 13.993 137.456H74.6109C79.8992 137.456 84.398 140.166 87.5175 143.938C90.6208 147.69 92.5016 152.651 92.5016 157.526V207.15H94.3959V162.599C94.3959 152.999 94.0687 146.789 88.4902 140.959L88.2205 140.682C85.5655 137.994 80.6823 136.431 75.9642 135.609C73.688 135.212 71.5977 135.011 70.0753 134.91C69.316 134.86 68.7026 134.834 68.2834 134.821C68.0739 134.815 67.9131 134.812 67.8074 134.81C67.7835 134.81 67.7624 134.81 67.7443 134.809L67.691 134.809H8.73104V132.162V113.195C8.73104 105.653 12.2382 98.3675 16.2684 92.7942C18.3056 89.977 20.535 87.5145 22.6494 85.5818C24.1346 84.2243 25.63 83.0678 27.0152 82.2391C27.0232 81.2553 27.0693 79.9072 27.2166 78.3092C27.5257 74.9558 28.2846 70.427 30.1074 65.8333C31.9342 61.2295 34.8576 56.4951 39.5193 52.8608C44.2001 49.2117 50.4685 46.8011 58.7629 46.5884L59.4548 46.5759C66.5539 46.4966 72.1321 48.04 76.4974 50.5782C80.8656 53.1179 83.885 56.5755 85.9747 60.114C85.9622 40.619 86.122 22.806 102.336 9.85604L102.668 9.59328C116.739 -1.45215 133.01 -1.97238 147.193 3.05811L147.638 3.21836C166.373 10.0866 175.219 27.5977 175.219 47.6903Z" fill="black"></path>
    <path fill-rule="evenodd" clip-rule="evenodd" d="M79.2419 97.0945C81.5591 97.0946 83.0337 98.7118 83.7939 100.242C84.5468 101.757 84.85 103.586 84.85 105.255C84.85 106.924 84.5467 108.753 83.7939 110.268C83.0337 111.798 81.5591 113.415 79.2419 113.415H55.0368C52.6032 113.415 51.3919 111.298 50.9086 110.021C50.3557 108.56 50.15 106.798 50.2032 105.164C50.2562 103.537 50.5763 101.731 51.3283 100.232C52.089 98.7165 53.5546 97.0945 55.8787 97.0945H79.2419ZM55.799 102.696C55.8816 102.531 55.9466 102.438 55.9885 102.388H79.1317C79.1723 102.437 79.2346 102.528 79.3134 102.686C79.588 103.239 79.7985 104.167 79.7985 105.255C79.7985 106.343 79.5879 107.271 79.3134 107.823C79.2343 107.982 79.1719 108.073 79.1313 108.122H55.6255C55.6225 108.115 55.6194 108.107 55.6162 108.099C55.6123 108.09 55.6083 108.08 55.6045 108.07C55.3751 107.464 55.2152 106.469 55.2518 105.345C55.2886 104.216 55.5134 103.265 55.799 102.696Z" fill="#44D324"></path>
  </symbol>
  <symbol fill="none" xmlns="http://www.w3.org/2000/svg" viewBox="0 0 60 60" id="facebook">
    <path d="M42.0471 32.9126L43.4245 23.932H34.808V18.1044C34.808 15.6471 36.0117 13.2524 39.8711 13.2524H43.7886V5.6068C43.7886 5.6068 40.2333 5 36.834 5C29.7376 5 25.0993 9.30097 25.0993 17.0874V23.932H17.2109V32.9126H25.0993V54.6226C26.7052 54.8742 28.3282 55.0004 29.9537 55C31.5791 55.0004 33.2022 54.8742 34.808 54.6226V32.9126H42.0471Z" fill='currentColor'></path>
  </symbol>
  <symbol fill="none" xmlns="http://www.w3.org/2000/svg" viewBox="0 0 60 60" id="instagram">
    <path d="M30.0025 5C23.2131 5 22.3608 5.02975 19.6943 5.151C17.0329 5.273 15.2161 5.69424 13.6267 6.31249C11.9822 6.95098 10.5874 7.80522 9.19795 9.19521C7.80721 10.5849 6.95297 11.9797 6.31248 13.6234C5.69248 15.2134 5.27074 17.0309 5.15099 19.6911C5.03174 22.3578 5.00049 23.2103 5.00049 30C5.00049 36.7897 5.03049 37.6392 5.15149 40.3056C5.27399 42.9671 5.69523 44.7839 6.31298 46.3733C6.95197 48.0178 7.80621 49.4126 9.1962 50.802C10.5854 52.1928 11.9802 53.049 13.6234 53.6875C15.2141 54.3058 17.0311 54.727 19.6921 54.849C22.3588 54.9702 23.2103 55 29.9995 55C36.7897 55 37.6392 54.9702 40.3056 54.849C42.9671 54.727 44.7858 54.3058 46.3766 53.6875C48.0203 53.049 49.413 52.1928 50.802 50.802C52.1928 49.4126 53.0468 48.0178 53.6875 46.3741C54.302 44.7839 54.724 42.9666 54.849 40.3061C54.9687 37.6397 55 36.7897 55 30C55 23.2103 54.9687 22.3583 54.849 19.6916C54.724 17.0301 54.302 15.2136 53.6875 13.6242C53.0468 11.9797 52.1928 10.5849 50.802 9.19521C49.4115 7.80472 48.0208 6.95048 46.3751 6.31274C44.7813 5.69424 42.9636 5.27275 40.3021 5.151C37.6354 5.02975 36.7864 5 29.9947 5H30.0025ZM27.7598 9.5052C28.4255 9.5042 29.1682 9.5052 30.0025 9.5052C36.6777 9.5052 37.4687 9.5292 40.1046 9.64895C42.5421 9.76045 43.8651 10.1677 44.7463 10.5099C45.9131 10.9629 46.7448 11.5047 47.6193 12.3799C48.4943 13.2549 49.0358 14.0882 49.4901 15.2549C49.8323 16.1349 50.24 17.4579 50.351 19.8954C50.4708 22.5308 50.4968 23.3223 50.4968 29.9942C50.4968 36.6662 50.4708 37.4579 50.351 40.0931C50.2395 42.5306 49.8323 43.8536 49.4901 44.7339C49.0371 45.9006 48.4943 46.7313 47.6193 47.6058C46.7443 48.4808 45.9136 49.0223 44.7463 49.4756C43.8661 49.8193 42.5421 50.2255 40.1046 50.337C37.4692 50.4568 36.6777 50.4828 30.0025 50.4828C23.3271 50.4828 22.5358 50.4568 19.9006 50.337C17.4631 50.2245 16.1401 49.8173 15.2581 49.4751C14.0916 49.0218 13.2582 48.4803 12.3832 47.6053C11.5082 46.7303 10.9667 45.8991 10.5124 44.7319C10.1702 43.8516 9.76244 42.5286 9.65144 40.0911C9.53169 37.4557 9.50769 36.6642 9.50769 29.988C9.50769 23.3118 9.53169 22.5246 9.65144 19.8891C9.76294 17.4516 10.1702 16.1286 10.5124 15.2474C10.9657 14.0807 11.5082 13.2474 12.3834 12.3724C13.2587 11.4974 14.0916 10.9557 15.2584 10.5017C16.1396 10.1579 17.4631 9.7517 19.9006 9.6397C22.2068 9.53545 23.1006 9.5042 27.7598 9.49895V9.5052ZM43.3474 13.6562C41.6911 13.6562 40.3474 14.9987 40.3474 16.6551C40.3474 18.3114 41.6911 19.6551 43.3474 19.6551C45.0036 19.6551 46.3473 18.3114 46.3473 16.6551C46.3473 14.9989 45.0036 13.6552 43.3474 13.6552V13.6562ZM30.0025 17.1614C22.9126 17.1614 17.1641 22.9098 17.1641 30C17.1641 37.0902 22.9126 42.8359 30.0025 42.8359C37.0927 42.8359 42.8391 37.0902 42.8391 30C42.8391 22.9101 37.0922 17.1614 30.002 17.1614H30.0025ZM30.0025 21.6666C34.6047 21.6666 38.3359 25.3973 38.3359 30C38.3359 34.6022 34.6047 38.3334 30.0025 38.3334C25.4003 38.3334 21.6693 34.6022 21.6693 30C21.6693 25.3973 25.4 21.6666 30.0025 21.6666Z" fill='currentColor'></path>
  </symbol>
  <symbol xmlns="http://www.w3.org/2000/svg" xmlns:xlink="http://www.w3.org/1999/xlink" zoomAndPan="magnify" preserveAspectRatio="xMidYMid meet" version="1.0" viewBox="0 0 525 262.499992" id="logo">
    <defs>
      <g></g>
      <clipPath id="bef4dc936e">
        <path d="M 428 29.097656 L 471 29.097656 L 471 92 L 428 92 Z M 428 29.097656 " clip-rule="nonzero"></path>
      </clipPath>
      <clipPath id="370c8c0856">
        <path d="M 474 8.023438 L 510 8.023438 L 510 60 L 474 60 Z M 474 8.023438 " clip-rule="nonzero"></path>
      </clipPath>
      <clipPath id="8e4e821734">
        <path d="M 13.597656 172.507812 L 499.421875 172.507812 L 499.421875 218 L 13.597656 218 Z M 13.597656 172.507812 " clip-rule="nonzero"></path>
      </clipPath>
      <clipPath id="0378a1621c">
        <path d="M 0.5 46 L 264 46 L 264 208 L 0.5 208 Z M 0.5 46 " clip-rule="nonzero"></path>
      </clipPath>
      <clipPath id="a8102c1d9c">
        <path d="M 167 46 L 524.5 46 L 524.5 208 L 167 208 Z M 167 46 " clip-rule="nonzero"></path>
      </clipPath>
    </defs>
    <g clip-path="url(#bef4dc936e)">
      <path fill="#38abff" d="M 467.804688 60.277344 L 449.25 29.929688 L 432.058594 60.070312 C 428.054688 66.457031 427.707031 74.761719 431.910156 81.640625 C 437.890625 91.417969 450.769531 94.554688 460.683594 88.660156 C 470.59375 82.761719 473.78125 70.0625 467.804688 60.277344 Z M 467.804688 60.277344 " fill-opacity="1" fill-rule="nonzero"></path>
    </g>
    <g clip-path="url(#370c8c0856)">
      <path fill="#38abff" d="M 506.542969 33.519531 L 491.371094 8.699219 L 477.3125 33.351562 C 474.035156 38.574219 473.75 45.367188 477.191406 50.992188 C 482.078125 58.988281 492.613281 61.554688 500.71875 56.730469 C 508.824219 51.910156 511.433594 41.519531 506.542969 33.519531 Z M 506.542969 33.519531 " fill-opacity="1" fill-rule="nonzero"></path>
    </g>
    <g clip-path="url(#8e4e821734)">
      <path fill="#7ed957" d="M 496.933594 183.871094 C 424.453125 206.609375 365.046875 217.972656 318.726562 217.972656 C 294.277344 217.972656 265.992188 214.644531 233.855469 207.976562 C 229.066406 207.121094 203.34375 201.050781 156.675781 189.769531 C 129.324219 183.105469 109.238281 179.769531 96.417969 179.769531 C 70.605469 179.769531 44.964844 190.027344 19.496094 210.539062 C 18.808594 211.054688 18.125 211.3125 17.445312 211.3125 C 14.878906 211.3125 13.597656 210.117188 13.597656 207.722656 C 13.597656 206.867188 14.027344 206.097656 14.878906 205.410156 C 40.691406 183.703125 69.75 172.847656 102.058594 172.847656 C 124.113281 172.847656 147.699219 175.15625 172.828125 179.769531 C 195.046875 184.046875 217.1875 188.402344 239.238281 192.847656 C 267.273438 197.460938 295.476562 199.773438 323.855469 199.773438 C 389.492188 199.773438 446.503906 192.25 494.878906 177.207031 C 497.953125 176.355469 499.492188 177.550781 499.492188 180.796875 C 499.492188 182.335938 498.636719 183.359375 496.933594 183.871094 Z M 496.933594 183.871094 " fill-opacity="1" fill-rule="nonzero"></path>
    </g>
    <g clip-path="url(#0378a1621c)">
      <path stroke-linecap="butt" transform="matrix(0.661755, 0, 0, 0.661755, 17.536397, 75.451341)" fill="none" stroke-linejoin="miter" d="M 97.153328 38.459841 L 97.153328 118.000904 L 77.786038 118.000904 L 77.786038 70.30578 L 60.000716 118.000904 L 44.369938 118.000904 L 26.442946 70.164112 L 26.442946 118.000904 L 7.075657 118.000904 L 7.075657 38.459841 L 29.955149 38.459841 L 52.279773 93.515833 L 74.38599 38.459841 Z M 172.515165 103.94619 L 142.829673 103.94619 L 138.071966 118.000904 L 117.795636 118.000904 L 146.566185 38.459841 L 169.002962 38.459841 L 197.773511 118.000904 L 177.272872 118.000904 Z M 167.539053 88.976532 L 157.657662 59.875423 L 147.923843 88.976532 Z M 267.126235 118.000904 L 250.940587 93.627987 L 236.637953 118.000904 L 214.667501 118.000904 L 240.150156 77.554495 L 214.089021 38.459841 L 236.637953 38.459841 L 252.628806 62.472683 L 266.68352 38.459841 L 288.648069 38.459841 L 263.389723 78.57569 L 289.675167 118.000904 Z M 267.126235 118.000904 " stroke="#004aad" stroke-width="14.449448" stroke-opacity="1" stroke-miterlimit="4"></path>
    </g>
    <g clip-path="url(#a8102c1d9c)">
      <path stroke-linecap="butt" transform="matrix(0.661755, 0, 0, 0.661755, 17.536397, 75.451341)" fill="none" stroke-linejoin="miter" d="M 308.033067 78.103461 C 308.033067 70.246752 309.727188 63.25186 313.121334 57.106981 C 316.533188 50.944393 321.273186 46.15127 327.341328 42.721707 C 333.427179 39.274436 340.327624 37.544897 348.036762 37.544897 C 357.481341 37.544897 365.556456 40.04771 372.273912 45.047434 C 379.003175 50.023547 383.507058 56.811838 385.773757 65.406405 L 364.470329 65.406405 C 362.882459 62.088997 360.633469 59.562572 357.717455 57.82713 C 354.825053 56.091689 351.525353 55.223968 347.818356 55.223968 C 341.838757 55.223968 336.99841 57.301776 333.291413 61.451487 C 329.602124 65.601199 327.760431 71.149889 327.760431 78.103461 C 327.760431 85.057032 329.602124 90.617528 333.291413 94.790851 C 336.99841 98.940563 341.838757 101.012467 347.818356 101.012467 C 351.525353 101.012467 354.825053 100.144747 357.717455 98.415208 C 360.633469 96.662058 362.882459 94.123828 364.470329 90.806419 L 385.773757 90.806419 C 383.507058 99.418695 379.003175 106.19518 372.273912 111.135875 C 365.556456 116.082474 357.481341 118.555773 348.036762 118.555773 C 340.327624 118.555773 333.427179 116.83804 327.341328 113.408477 C 321.273186 109.978915 316.533188 105.197596 313.121334 99.076329 C 309.727188 92.955061 308.033067 85.96017 308.033067 78.103461 Z M 428.935483 103.031246 L 454.329595 103.031246 L 454.329595 118.000904 L 409.568193 118.000904 L 409.568193 38.459841 L 428.935483 38.459841 Z M 494.882255 53.978464 L 494.882255 70.051957 L 520.837139 70.051957 L 520.837139 85.021615 L 494.882255 85.021615 L 494.882255 102.48228 L 524.237187 102.48228 L 524.237187 118.000904 L 475.514966 118.000904 L 475.514966 38.459841 L 524.237187 38.459841 L 524.237187 53.978464 Z M 598.241366 103.94619 L 568.555874 103.94619 L 563.798167 118.000904 L 543.515934 118.000904 L 572.292385 38.459841 L 594.729163 38.459841 L 623.499712 118.000904 L 602.999073 118.000904 Z M 593.259351 88.976532 L 583.383863 59.875423 L 573.644141 88.976532 Z M 715.289213 118.000904 L 695.921924 118.000904 L 663.497503 68.918608 L 663.497503 118.000904 L 644.130214 118.000904 L 644.130214 38.459841 L 663.497503 38.459841 L 695.921924 87.731028 L 695.921924 38.459841 L 715.289213 38.459841 Z M 715.289213 118.000904 " stroke="#004aad" stroke-width="14.449448" stroke-opacity="1" stroke-miterlimit="4"></path>
    </g>
    <g fill="#38abff" fill-opacity="1">
      <g transform="translate(17.567417, 153.538464)">
        <g>
          <path d="M 64.265625 -52.640625 L 64.265625 0 L 51.4375 0 L 51.4375 -31.5625 L 39.671875 0 L 29.3125 0 L 17.46875 -31.640625 L 17.46875 0 L 4.65625 0 L 4.65625 -52.640625 L 19.796875 -52.640625 L 34.5625 -16.203125 L 49.1875 -52.640625 Z M 64.265625 -52.640625 "></path>
        </g>
      </g>
    </g>
    <g fill="#38abff" fill-opacity="1">
      <g transform="translate(94.278356, 153.538464)">
        <g>
          <path d="M 37.421875 -9.296875 L 17.765625 -9.296875 L 14.625 0 L 1.203125 0 L 20.25 -52.640625 L 35.09375 -52.640625 L 54.140625 0 L 40.5625 0 Z M 34.125 -19.203125 L 27.59375 -38.46875 L 21.140625 -19.203125 Z M 34.125 -19.203125 "></path>
        </g>
      </g>
    </g>
    <g fill="#38abff" fill-opacity="1">
      <g transform="translate(157.41699, 153.538464)">
        <g>
          <path d="M 36.890625 0 L 26.171875 -16.125 L 16.71875 0 L 2.171875 0 L 19.046875 -26.765625 L 1.796875 -52.640625 L 16.71875 -52.640625 L 27.296875 -36.75 L 36.59375 -52.640625 L 51.140625 -52.640625 L 34.421875 -26.09375 L 51.8125 0 Z M 36.890625 0 "></path>
        </g>
      </g>
    </g>
    <g fill="#7ed957" fill-opacity="1">
      <g transform="translate(218.906465, 153.538464)">
        <g>
          <path d="M 2.46875 -26.390625 C 2.46875 -31.585938 3.59375 -36.222656 5.84375 -40.296875 C 8.09375 -44.378906 11.226562 -47.554688 15.25 -49.828125 C 19.28125 -52.097656 23.84375 -53.234375 28.9375 -53.234375 C 35.1875 -53.234375 40.535156 -51.582031 44.984375 -48.28125 C 49.441406 -44.988281 52.414062 -40.492188 53.90625 -34.796875 L 39.8125 -34.796875 C 38.757812 -36.992188 37.269531 -38.664062 35.34375 -39.8125 C 33.425781 -40.96875 31.242188 -41.546875 28.796875 -41.546875 C 24.847656 -41.546875 21.644531 -40.171875 19.1875 -37.421875 C 16.738281 -34.671875 15.515625 -30.992188 15.515625 -26.390625 C 15.515625 -21.796875 16.738281 -18.125 19.1875 -15.375 C 21.644531 -12.625 24.847656 -11.25 28.796875 -11.25 C 31.242188 -11.25 33.425781 -11.820312 35.34375 -12.96875 C 37.269531 -14.125 38.757812 -15.800781 39.8125 -18 L 53.90625 -18 C 52.414062 -12.300781 49.441406 -7.8125 44.984375 -4.53125 C 40.535156 -1.257812 35.1875 0.375 28.9375 0.375 C 23.84375 0.375 19.28125 -0.757812 15.25 -3.03125 C 11.226562 -5.3125 8.09375 -8.472656 5.84375 -12.515625 C 3.59375 -16.566406 2.46875 -21.191406 2.46875 -26.390625 Z M 2.46875 -26.390625 "></path>
        </g>
      </g>
    </g>
    <g fill="#7ed957" fill-opacity="1">
      <g transform="translate(283.919726, 153.538464)">
        <g>
          <path d="M 17.46875 -9.890625 L 34.265625 -9.890625 L 34.265625 0 L 4.65625 0 L 4.65625 -52.640625 L 17.46875 -52.640625 Z M 17.46875 -9.890625 "></path>
        </g>
      </g>
    </g>
    <g fill="#7ed957" fill-opacity="1">
      <g transform="translate(327.562217, 153.538464)">
        <g>
          <path d="M 17.46875 -42.359375 L 17.46875 -31.71875 L 34.640625 -31.71875 L 34.640625 -21.828125 L 17.46875 -21.828125 L 17.46875 -10.265625 L 36.890625 -10.265625 L 36.890625 0 L 4.65625 0 L 4.65625 -52.640625 L 36.890625 -52.640625 L 36.890625 -42.359375 Z M 17.46875 -42.359375 "></path>
        </g>
      </g>
    </g>
    <g fill="#7ed957" fill-opacity="1">
      <g transform="translate(376.003752, 153.538464)">
        <g>
          <path d="M 37.421875 -9.296875 L 17.765625 -9.296875 L 14.625 0 L 1.203125 0 L 20.25 -52.640625 L 35.09375 -52.640625 L 54.140625 0 L 40.5625 0 Z M 34.125 -19.203125 L 27.59375 -38.46875 L 21.140625 -19.203125 Z M 34.125 -19.203125 "></path>
        </g>
      </g>
    </g>
    <g fill="#7ed957" fill-opacity="1">
      <g transform="translate(439.142392, 153.538464)">
        <g>
          <path d="M 51.734375 0 L 38.921875 0 L 17.46875 -32.46875 L 17.46875 0 L 4.65625 0 L 4.65625 -52.640625 L 17.46875 -52.640625 L 38.921875 -20.015625 L 38.921875 -52.640625 L 51.734375 -52.640625 Z M 51.734375 0 "></path>
        </g>
      </g>
    </g>
    <g fill="#004aad" fill-opacity="1">
      <g transform="translate(33.327504, 248.737961)">
        <g>
          <path d="M 4.390625 -14.40625 L 7.359375 -10.046875 L 10.34375 -14.40625 L 14.265625 -14.40625 L 9.46875 -7.515625 L 14.65625 0 L 10.71875 0 L 7.359375 -4.78125 L 4.046875 0 L 0.203125 0 L 5.34375 -7.359375 L 0.53125 -14.40625 Z M 4.390625 -14.40625 "></path>
        </g>
      </g>
    </g>
    <g fill="#004aad" fill-opacity="1">
      <g transform="translate(49.045291, 248.737961)">
        <g>
          <path d="M 1.53125 -11.078125 L 4.734375 -11.078125 L 4.734375 0 L 1.53125 0 Z M 3.125 -12.609375 C 2.53125 -12.609375 2.046875 -12.78125 1.671875 -13.125 C 1.304688 -13.46875 1.125 -13.894531 1.125 -14.40625 C 1.125 -14.914062 1.304688 -15.335938 1.671875 -15.671875 C 2.046875 -16.015625 2.53125 -16.1875 3.125 -16.1875 C 3.71875 -16.1875 4.195312 -16.019531 4.5625 -15.6875 C 4.9375 -15.363281 5.125 -14.957031 5.125 -14.46875 C 5.125 -13.925781 4.9375 -13.476562 4.5625 -13.125 C 4.195312 -12.78125 3.71875 -12.609375 3.125 -12.609375 Z M 3.125 -12.609375 "></path>
        </g>
      </g>
    </g>
    <g fill="#004aad" fill-opacity="1">
      <g transform="translate(56.390048, 248.737961)">
        <g>
          <path d="M 12.34375 0 L 12.34375 -6.625 L 9.03125 -1.0625 L 7.671875 -1.0625 L 4.4375 -6.640625 L 4.4375 0 L 1.546875 0 L 1.546875 -11.078125 L 4.890625 -11.078125 L 8.4375 -4.671875 L 12.203125 -11.078125 L 15.203125 -11.078125 L 15.25 0 Z M 12.34375 0 "></path>
        </g>
      </g>
    </g>
    <g fill="#004aad" fill-opacity="1">
      <g transform="translate(74.226832, 248.737961)">
        <g>
          <path d="M 11.5 -11.078125 L 11.5 0 L 8.296875 0 L 8.296875 -4.109375 C 7.359375 -3.648438 6.328125 -3.421875 5.203125 -3.421875 C 3.710938 -3.421875 2.582031 -3.757812 1.8125 -4.4375 C 1.050781 -5.113281 0.671875 -6.164062 0.671875 -7.59375 L 0.671875 -11.078125 L 3.890625 -11.078125 L 3.890625 -7.796875 C 3.890625 -7.128906 4.0625 -6.644531 4.40625 -6.34375 C 4.757812 -6.039062 5.265625 -5.890625 5.921875 -5.890625 C 6.765625 -5.890625 7.554688 -6.066406 8.296875 -6.421875 L 8.296875 -11.078125 Z M 11.5 -11.078125 "></path>
        </g>
      </g>
    </g>
    <g fill="#004aad" fill-opacity="1">
      <g transform="translate(88.339967, 248.737961)">
        <g>
          <path d="M 1.546875 -11.078125 L 4.734375 -11.078125 L 4.734375 -4.484375 L 10.125 -11.078125 L 13.0625 -11.078125 L 13.0625 0 L 9.875 0 L 9.875 -6.578125 L 4.5 0 L 1.546875 0 Z M 1.546875 -11.078125 "></path>
        </g>
      </g>
    </g>
    <g fill="#004aad" fill-opacity="1">
      <g transform="translate(104.016626, 248.737961)">
        <g>
          <path d="M 6.8125 0.171875 C 5.632812 0.171875 4.578125 -0.0703125 3.640625 -0.5625 C 2.703125 -1.050781 1.96875 -1.726562 1.4375 -2.59375 C 0.90625 -3.457031 0.640625 -4.4375 0.640625 -5.53125 C 0.640625 -6.632812 0.90625 -7.617188 1.4375 -8.484375 C 1.96875 -9.347656 2.703125 -10.019531 3.640625 -10.5 C 4.578125 -10.988281 5.632812 -11.234375 6.8125 -11.234375 C 7.976562 -11.234375 8.992188 -10.988281 9.859375 -10.5 C 10.734375 -10.019531 11.375 -9.328125 11.78125 -8.421875 L 9.28125 -7.078125 C 8.707031 -8.097656 7.878906 -8.609375 6.796875 -8.609375 C 5.960938 -8.609375 5.269531 -8.332031 4.71875 -7.78125 C 4.164062 -7.226562 3.890625 -6.476562 3.890625 -5.53125 C 3.890625 -4.582031 4.164062 -3.832031 4.71875 -3.28125 C 5.269531 -2.738281 5.960938 -2.46875 6.796875 -2.46875 C 7.890625 -2.46875 8.71875 -2.972656 9.28125 -3.984375 L 11.78125 -2.640625 C 11.375 -1.753906 10.734375 -1.0625 9.859375 -0.5625 C 8.992188 -0.0703125 7.976562 0.171875 6.8125 0.171875 Z M 6.8125 0.171875 "></path>
        </g>
      </g>
    </g>
    <g fill="#004aad" fill-opacity="1">
      <g transform="translate(117.224572, 248.737961)">
        <g>
          <path d="M 10.84375 -8.4375 L 7.09375 -8.4375 L 7.09375 0 L 3.90625 0 L 3.90625 -8.4375 L 0.171875 -8.4375 L 0.171875 -11.078125 L 10.84375 -11.078125 Z M 10.84375 -8.4375 "></path>
        </g>
      </g>
    </g>
    <g fill="#004aad" fill-opacity="1">
      <g transform="translate(129.301028, 248.737961)">
        <g>
          <path d="M 6.421875 -4.203125 L 4.75 -4.203125 L 4.75 0 L 1.546875 0 L 1.546875 -11.078125 L 4.75 -11.078125 L 4.75 -6.765625 L 6.484375 -6.765625 L 9.484375 -11.078125 L 12.90625 -11.078125 L 9.03125 -5.765625 L 13.171875 0 L 9.390625 0 Z M 6.421875 -4.203125 "></path>
        </g>
      </g>
    </g>
    <g fill="#004aad" fill-opacity="1">
      <g transform="translate(143.373013, 248.737961)">
        <g>
          <path d="M 5.84375 -11.234375 C 7.550781 -11.234375 8.863281 -10.820312 9.78125 -10 C 10.707031 -9.1875 11.171875 -7.957031 11.171875 -6.3125 L 11.171875 0 L 8.15625 0 L 8.15625 -1.375 C 7.550781 -0.34375 6.425781 0.171875 4.78125 0.171875 C 3.9375 0.171875 3.203125 0.0234375 2.578125 -0.265625 C 1.953125 -0.554688 1.472656 -0.953125 1.140625 -1.453125 C 0.816406 -1.960938 0.65625 -2.539062 0.65625 -3.1875 C 0.65625 -4.21875 1.039062 -5.023438 1.8125 -5.609375 C 2.59375 -6.203125 3.789062 -6.5 5.40625 -6.5 L 7.953125 -6.5 C 7.953125 -7.195312 7.738281 -7.734375 7.3125 -8.109375 C 6.894531 -8.492188 6.257812 -8.6875 5.40625 -8.6875 C 4.8125 -8.6875 4.226562 -8.59375 3.65625 -8.40625 C 3.09375 -8.21875 2.613281 -7.96875 2.21875 -7.65625 L 1.0625 -9.890625 C 1.664062 -10.316406 2.390625 -10.644531 3.234375 -10.875 C 4.078125 -11.113281 4.945312 -11.234375 5.84375 -11.234375 Z M 5.59375 -2 C 6.132812 -2 6.617188 -2.125 7.046875 -2.375 C 7.472656 -2.625 7.773438 -3 7.953125 -3.5 L 7.953125 -4.625 L 5.75 -4.625 C 4.4375 -4.625 3.78125 -4.191406 3.78125 -3.328125 C 3.78125 -2.921875 3.941406 -2.597656 4.265625 -2.359375 C 4.585938 -2.117188 5.03125 -2 5.59375 -2 Z M 5.59375 -2 "></path>
        </g>
      </g>
    </g>
    <g fill="#004aad" fill-opacity="1">
      <g transform="translate(156.868981, 248.737961)">
        <g></g>
      </g>
    </g>
    <g fill="#004aad" fill-opacity="1">
      <g transform="translate(163.761144, 248.737961)">
        <g>
          <path d="M 12.34375 0 L 12.34375 -6.625 L 9.03125 -1.0625 L 7.671875 -1.0625 L 4.4375 -6.640625 L 4.4375 0 L 1.546875 0 L 1.546875 -11.078125 L 4.890625 -11.078125 L 8.4375 -4.671875 L 12.203125 -11.078125 L 15.203125 -11.078125 L 15.25 0 Z M 12.34375 0 "></path>
        </g>
      </g>
    </g>
    <g fill="#004aad" fill-opacity="1">
      <g transform="translate(181.59793, 248.737961)">
        <g>
          <path d="M 12.3125 -5.5 C 12.3125 -5.457031 12.289062 -5.164062 12.25 -4.625 L 3.875 -4.625 C 4.019531 -3.9375 4.375 -3.394531 4.9375 -3 C 5.5 -2.601562 6.203125 -2.40625 7.046875 -2.40625 C 7.617188 -2.40625 8.128906 -2.488281 8.578125 -2.65625 C 9.023438 -2.832031 9.441406 -3.109375 9.828125 -3.484375 L 11.53125 -1.625 C 10.488281 -0.425781 8.960938 0.171875 6.953125 0.171875 C 5.710938 0.171875 4.609375 -0.0703125 3.640625 -0.5625 C 2.679688 -1.050781 1.941406 -1.726562 1.421875 -2.59375 C 0.898438 -3.457031 0.640625 -4.4375 0.640625 -5.53125 C 0.640625 -6.613281 0.894531 -7.59375 1.40625 -8.46875 C 1.925781 -9.34375 2.632812 -10.019531 3.53125 -10.5 C 4.425781 -10.988281 5.429688 -11.234375 6.546875 -11.234375 C 7.628906 -11.234375 8.609375 -11 9.484375 -10.53125 C 10.367188 -10.070312 11.0625 -9.40625 11.5625 -8.53125 C 12.0625 -7.65625 12.3125 -6.644531 12.3125 -5.5 Z M 6.5625 -8.8125 C 5.84375 -8.8125 5.234375 -8.601562 4.734375 -8.1875 C 4.242188 -7.78125 3.941406 -7.21875 3.828125 -6.5 L 9.28125 -6.5 C 9.175781 -7.195312 8.875 -7.753906 8.375 -8.171875 C 7.882812 -8.597656 7.28125 -8.8125 6.5625 -8.8125 Z M 6.5625 -8.8125 "></path>
        </g>
      </g>
    </g>
    <g fill="#004aad" fill-opacity="1">
      <g transform="translate(195.896219, 248.737961)">
        <g>
          <path d="M 7.9375 -10.3125 C 9 -10.3125 9.925781 -10.09375 10.71875 -9.65625 C 11.519531 -9.226562 12.132812 -8.625 12.5625 -7.84375 C 13 -7.0625 13.21875 -6.15625 13.21875 -5.125 C 13.21875 -4.070312 12.957031 -3.132812 12.4375 -2.3125 C 11.925781 -1.5 11.207031 -0.867188 10.28125 -0.421875 C 9.363281 0.0234375 8.320312 0.25 7.15625 0.25 C 5.226562 0.25 3.710938 -0.367188 2.609375 -1.609375 C 1.503906 -2.859375 0.953125 -4.679688 0.953125 -7.078125 C 0.953125 -9.296875 1.429688 -11.066406 2.390625 -12.390625 C 3.359375 -13.722656 4.847656 -14.59375 6.859375 -15 L 12.125 -16.046875 L 12.546875 -13.296875 L 7.90625 -12.375 C 6.644531 -12.125 5.707031 -11.707031 5.09375 -11.125 C 4.476562 -10.550781 4.117188 -9.738281 4.015625 -8.6875 C 4.492188 -9.207031 5.066406 -9.609375 5.734375 -9.890625 C 6.410156 -10.171875 7.144531 -10.3125 7.9375 -10.3125 Z M 7.1875 -2.25 C 8.007812 -2.25 8.671875 -2.515625 9.171875 -3.046875 C 9.671875 -3.578125 9.921875 -4.253906 9.921875 -5.078125 C 9.921875 -5.921875 9.671875 -6.585938 9.171875 -7.078125 C 8.671875 -7.566406 8.007812 -7.8125 7.1875 -7.8125 C 6.34375 -7.8125 5.664062 -7.566406 5.15625 -7.078125 C 4.65625 -6.585938 4.40625 -5.921875 4.40625 -5.078125 C 4.40625 -4.242188 4.664062 -3.5625 5.1875 -3.03125 C 5.707031 -2.507812 6.375 -2.25 7.1875 -2.25 Z M 7.1875 -2.25 "></path>
        </g>
      </g>
    </g>
    <g fill="#004aad" fill-opacity="1">
      <g transform="translate(210.647096, 248.737961)">
        <g>
          <path d="M 12.15625 -11.078125 L 12.15625 0 L 8.953125 0 L 8.953125 -8.4375 L 5.453125 -8.4375 L 5.34375 -6.484375 C 5.289062 -5.023438 5.15625 -3.816406 4.9375 -2.859375 C 4.71875 -1.898438 4.359375 -1.144531 3.859375 -0.59375 C 3.367188 -0.0507812 2.6875 0.21875 1.8125 0.21875 C 1.34375 0.21875 0.785156 0.140625 0.140625 -0.015625 L 0.3125 -2.65625 C 0.53125 -2.625 0.6875 -2.609375 0.78125 -2.609375 C 1.257812 -2.609375 1.617188 -2.78125 1.859375 -3.125 C 2.097656 -3.476562 2.257812 -3.925781 2.34375 -4.46875 C 2.425781 -5.007812 2.488281 -5.726562 2.53125 -6.625 L 2.703125 -11.078125 Z M 12.15625 -11.078125 "></path>
        </g>
      </g>
    </g>
    <g fill="#004aad" fill-opacity="1">
      <g transform="translate(225.418555, 248.737961)">
        <g>
          <path d="M 1.53125 -11.078125 L 4.734375 -11.078125 L 4.734375 0 L 1.53125 0 Z M 3.125 -12.609375 C 2.53125 -12.609375 2.046875 -12.78125 1.671875 -13.125 C 1.304688 -13.46875 1.125 -13.894531 1.125 -14.40625 C 1.125 -14.914062 1.304688 -15.335938 1.671875 -15.671875 C 2.046875 -16.015625 2.53125 -16.1875 3.125 -16.1875 C 3.71875 -16.1875 4.195312 -16.019531 4.5625 -15.6875 C 4.9375 -15.363281 5.125 -14.957031 5.125 -14.46875 C 5.125 -13.925781 4.9375 -13.476562 4.5625 -13.125 C 4.195312 -12.78125 3.71875 -12.609375 3.125 -12.609375 Z M 3.125 -12.609375 "></path>
        </g>
      </g>
    </g>
    <g fill="#004aad" fill-opacity="1">
      <g transform="translate(232.763306, 248.737961)">
        <g>
          <path d="M 10 -5.78125 C 11.300781 -5.34375 11.953125 -4.46875 11.953125 -3.15625 C 11.953125 -2.144531 11.570312 -1.363281 10.8125 -0.8125 C 10.0625 -0.269531 8.941406 0 7.453125 0 L 1.546875 0 L 1.546875 -11.078125 L 7.203125 -11.078125 C 8.585938 -11.078125 9.671875 -10.820312 10.453125 -10.3125 C 11.234375 -9.8125 11.625 -9.109375 11.625 -8.203125 C 11.625 -7.660156 11.484375 -7.175781 11.203125 -6.75 C 10.921875 -6.332031 10.519531 -6.007812 10 -5.78125 Z M 4.484375 -6.515625 L 6.921875 -6.515625 C 8.046875 -6.515625 8.609375 -6.914062 8.609375 -7.71875 C 8.609375 -8.5 8.046875 -8.890625 6.921875 -8.890625 L 4.484375 -8.890625 Z M 7.1875 -2.1875 C 8.363281 -2.1875 8.953125 -2.585938 8.953125 -3.390625 C 8.953125 -3.816406 8.8125 -4.128906 8.53125 -4.328125 C 8.257812 -4.523438 7.832031 -4.625 7.25 -4.625 L 4.484375 -4.625 L 4.484375 -2.1875 Z M 7.1875 -2.1875 "></path>
        </g>
      </g>
    </g>
    <g fill="#004aad" fill-opacity="1">
      <g transform="translate(246.62957, 248.737961)">
        <g></g>
      </g>
    </g>
    <g fill="#004aad" fill-opacity="1">
      <g transform="translate(253.521732, 248.737961)">
        <g>
          <path d="M 10.84375 -8.4375 L 7.09375 -8.4375 L 7.09375 0 L 3.90625 0 L 3.90625 -8.4375 L 0.171875 -8.4375 L 0.171875 -11.078125 L 10.84375 -11.078125 Z M 10.84375 -8.4375 "></path>
        </g>
      </g>
    </g>
    <g fill="#004aad" fill-opacity="1">
      <g transform="translate(265.598188, 248.737961)">
        <g>
          <path d="M 5.84375 -11.234375 C 7.550781 -11.234375 8.863281 -10.820312 9.78125 -10 C 10.707031 -9.1875 11.171875 -7.957031 11.171875 -6.3125 L 11.171875 0 L 8.15625 0 L 8.15625 -1.375 C 7.550781 -0.34375 6.425781 0.171875 4.78125 0.171875 C 3.9375 0.171875 3.203125 0.0234375 2.578125 -0.265625 C 1.953125 -0.554688 1.472656 -0.953125 1.140625 -1.453125 C 0.816406 -1.960938 0.65625 -2.539062 0.65625 -3.1875 C 0.65625 -4.21875 1.039062 -5.023438 1.8125 -5.609375 C 2.59375 -6.203125 3.789062 -6.5 5.40625 -6.5 L 7.953125 -6.5 C 7.953125 -7.195312 7.738281 -7.734375 7.3125 -8.109375 C 6.894531 -8.492188 6.257812 -8.6875 5.40625 -8.6875 C 4.8125 -8.6875 4.226562 -8.59375 3.65625 -8.40625 C 3.09375 -8.21875 2.613281 -7.96875 2.21875 -7.65625 L 1.0625 -9.890625 C 1.664062 -10.316406 2.390625 -10.644531 3.234375 -10.875 C 4.078125 -11.113281 4.945312 -11.234375 5.84375 -11.234375 Z M 5.59375 -2 C 6.132812 -2 6.617188 -2.125 7.046875 -2.375 C 7.472656 -2.625 7.773438 -3 7.953125 -3.5 L 7.953125 -4.625 L 5.75 -4.625 C 4.4375 -4.625 3.78125 -4.191406 3.78125 -3.328125 C 3.78125 -2.921875 3.941406 -2.597656 4.265625 -2.359375 C 4.585938 -2.117188 5.03125 -2 5.59375 -2 Z M 5.59375 -2 "></path>
        </g>
      </g>
    </g>
    <g fill="#004aad" fill-opacity="1">
      <g transform="translate(279.094156, 248.737961)">
        <g></g>
      </g>
    </g>
    <g fill="#004aad" fill-opacity="1">
      <g transform="translate(285.986319, 248.737961)">
        <g>
          <path d="M 12.546875 -11.078125 L 12.546875 0 L 9.34375 0 L 9.34375 -8.4375 L 4.734375 -8.4375 L 4.734375 0 L 1.546875 0 L 1.546875 -11.078125 Z M 12.546875 -11.078125 "></path>
        </g>
      </g>
    </g>
    <g fill="#004aad" fill-opacity="1">
      <g transform="translate(301.148656, 248.737961)">
        <g>
          <path d="M 8.078125 -11.234375 C 9.097656 -11.234375 10.03125 -10.992188 10.875 -10.515625 C 11.71875 -10.046875 12.378906 -9.382812 12.859375 -8.53125 C 13.347656 -7.675781 13.59375 -6.675781 13.59375 -5.53125 C 13.59375 -4.394531 13.347656 -3.394531 12.859375 -2.53125 C 12.378906 -1.675781 11.71875 -1.007812 10.875 -0.53125 C 10.03125 -0.0625 9.097656 0.171875 8.078125 0.171875 C 6.660156 0.171875 5.546875 -0.273438 4.734375 -1.171875 L 4.734375 3.984375 L 1.53125 3.984375 L 1.53125 -11.078125 L 4.59375 -11.078125 L 4.59375 -9.796875 C 5.382812 -10.753906 6.546875 -11.234375 8.078125 -11.234375 Z M 7.515625 -2.46875 C 8.335938 -2.46875 9.015625 -2.742188 9.546875 -3.296875 C 10.078125 -3.859375 10.34375 -4.601562 10.34375 -5.53125 C 10.34375 -6.46875 10.078125 -7.210938 9.546875 -7.765625 C 9.015625 -8.328125 8.335938 -8.609375 7.515625 -8.609375 C 6.691406 -8.609375 6.015625 -8.328125 5.484375 -7.765625 C 4.960938 -7.210938 4.703125 -6.46875 4.703125 -5.53125 C 4.703125 -4.601562 4.960938 -3.859375 5.484375 -3.296875 C 6.015625 -2.742188 6.691406 -2.46875 7.515625 -2.46875 Z M 7.515625 -2.46875 "></path>
        </g>
      </g>
    </g>
    <g fill="#004aad" fill-opacity="1">
      <g transform="translate(316.310975, 248.737961)">
        <g>
          <path d="M 5.84375 -11.234375 C 7.550781 -11.234375 8.863281 -10.820312 9.78125 -10 C 10.707031 -9.1875 11.171875 -7.957031 11.171875 -6.3125 L 11.171875 0 L 8.15625 0 L 8.15625 -1.375 C 7.550781 -0.34375 6.425781 0.171875 4.78125 0.171875 C 3.9375 0.171875 3.203125 0.0234375 2.578125 -0.265625 C 1.953125 -0.554688 1.472656 -0.953125 1.140625 -1.453125 C 0.816406 -1.960938 0.65625 -2.539062 0.65625 -3.1875 C 0.65625 -4.21875 1.039062 -5.023438 1.8125 -5.609375 C 2.59375 -6.203125 3.789062 -6.5 5.40625 -6.5 L 7.953125 -6.5 C 7.953125 -7.195312 7.738281 -7.734375 7.3125 -8.109375 C 6.894531 -8.492188 6.257812 -8.6875 5.40625 -8.6875 C 4.8125 -8.6875 4.226562 -8.59375 3.65625 -8.40625 C 3.09375 -8.21875 2.613281 -7.96875 2.21875 -7.65625 L 1.0625 -9.890625 C 1.664062 -10.316406 2.390625 -10.644531 3.234375 -10.875 C 4.078125 -11.113281 4.945312 -11.234375 5.84375 -11.234375 Z M 5.59375 -2 C 6.132812 -2 6.617188 -2.125 7.046875 -2.375 C 7.472656 -2.625 7.773438 -3 7.953125 -3.5 L 7.953125 -4.625 L 5.75 -4.625 C 4.4375 -4.625 3.78125 -4.191406 3.78125 -3.328125 C 3.78125 -2.921875 3.941406 -2.597656 4.265625 -2.359375 C 4.585938 -2.117188 5.03125 -2 5.59375 -2 Z M 5.59375 -2 "></path>
        </g>
      </g>
    </g>
    <g fill="#004aad" fill-opacity="1">
      <g transform="translate(329.806943, 248.737961)">
        <g>
          <path d="M 1.546875 -11.078125 L 4.734375 -11.078125 L 4.734375 -6.75 L 9.546875 -6.75 L 9.546875 -11.078125 L 12.765625 -11.078125 L 12.765625 0 L 9.546875 0 L 9.546875 -4.140625 L 4.734375 -4.140625 L 4.734375 0 L 1.546875 0 Z M 1.546875 -11.078125 "></path>
        </g>
      </g>
    </g>
    <g fill="#004aad" fill-opacity="1">
      <g transform="translate(345.154429, 248.737961)">
        <g>
          <path d="M 1.546875 -11.078125 L 4.734375 -11.078125 L 4.734375 -6.75 L 9.546875 -6.75 L 9.546875 -11.078125 L 12.765625 -11.078125 L 12.765625 0 L 9.546875 0 L 9.546875 -4.140625 L 4.734375 -4.140625 L 4.734375 0 L 1.546875 0 Z M 1.546875 -11.078125 "></path>
        </g>
      </g>
    </g>
    <g fill="#004aad" fill-opacity="1">
      <g transform="translate(360.501933, 248.737961)">
        <g>
          <path d="M 11.375 -11.078125 L 11.375 0 L 8.515625 0 L 8.515625 -3.171875 L 6.15625 -3.171875 L 4.046875 0 L 0.640625 0 L 3.171875 -3.625 C 2.398438 -3.925781 1.8125 -4.359375 1.40625 -4.921875 C 1 -5.492188 0.796875 -6.1875 0.796875 -7 C 0.796875 -8.300781 1.265625 -9.304688 2.203125 -10.015625 C 3.148438 -10.722656 4.445312 -11.078125 6.09375 -11.078125 Z M 6.15625 -8.453125 C 5.46875 -8.453125 4.945312 -8.328125 4.59375 -8.078125 C 4.25 -7.835938 4.078125 -7.441406 4.078125 -6.890625 C 4.078125 -6.347656 4.242188 -5.945312 4.578125 -5.6875 C 4.910156 -5.4375 5.421875 -5.3125 6.109375 -5.3125 L 8.515625 -5.3125 L 8.515625 -8.453125 Z M 6.15625 -8.453125 "></path>
        </g>
      </g>
    </g>
    <g fill="#004aad" fill-opacity="1">
      <g transform="translate(374.491635, 248.737961)">
        <g></g>
      </g>
    </g>
    <g fill="#004aad" fill-opacity="1">
      <g transform="translate(381.383797, 248.737961)">
        <g>
          <path d="M 6.421875 -4.203125 L 4.75 -4.203125 L 4.75 0 L 1.546875 0 L 1.546875 -11.078125 L 4.75 -11.078125 L 4.75 -6.765625 L 6.484375 -6.765625 L 9.484375 -11.078125 L 12.90625 -11.078125 L 9.03125 -5.765625 L 13.171875 0 L 9.390625 0 Z M 6.421875 -4.203125 "></path>
        </g>
      </g>
    </g>
    <g fill="#004aad" fill-opacity="1">
      <g transform="translate(395.661504, 248.737961)">
        <g>
          <path d="M 1.546875 -11.078125 L 4.734375 -11.078125 L 4.734375 -4.484375 L 10.125 -11.078125 L 13.0625 -11.078125 L 13.0625 0 L 9.875 0 L 9.875 -6.578125 L 4.5 0 L 1.546875 0 Z M 1.546875 -11.078125 "></path>
        </g>
      </g>
    </g>
    <g fill="#004aad" fill-opacity="1">
      <g transform="translate(411.338177, 248.737961)">
        <g>
          <path d="M 12.15625 -11.078125 L 12.15625 0 L 8.953125 0 L 8.953125 -8.4375 L 5.453125 -8.4375 L 5.34375 -6.484375 C 5.289062 -5.023438 5.15625 -3.816406 4.9375 -2.859375 C 4.71875 -1.898438 4.359375 -1.144531 3.859375 -0.59375 C 3.367188 -0.0507812 2.6875 0.21875 1.8125 0.21875 C 1.34375 0.21875 0.785156 0.140625 0.140625 -0.015625 L 0.3125 -2.65625 C 0.53125 -2.625 0.6875 -2.609375 0.78125 -2.609375 C 1.257812 -2.609375 1.617188 -2.78125 1.859375 -3.125 C 2.097656 -3.476562 2.257812 -3.925781 2.34375 -4.46875 C 2.425781 -5.007812 2.488281 -5.726562 2.53125 -6.625 L 2.703125 -11.078125 Z M 12.15625 -11.078125 "></path>
        </g>
      </g>
    </g>
    <g fill="#004aad" fill-opacity="1">
      <g transform="translate(426.109636, 248.737961)">
        <g>
          <path d="M 1.546875 -11.078125 L 4.734375 -11.078125 L 4.734375 -4.484375 L 10.125 -11.078125 L 13.0625 -11.078125 L 13.0625 0 L 9.875 0 L 9.875 -6.578125 L 4.5 0 L 1.546875 0 Z M 1.546875 -11.078125 "></path>
        </g>
      </g>
    </g>
    <g fill="#004aad" fill-opacity="1">
      <g transform="translate(441.786309, 248.737961)">
        <g>
          <path d="M 12.34375 0 L 12.34375 -6.625 L 9.03125 -1.0625 L 7.671875 -1.0625 L 4.4375 -6.640625 L 4.4375 0 L 1.546875 0 L 1.546875 -11.078125 L 4.890625 -11.078125 L 8.4375 -4.671875 L 12.203125 -11.078125 L 15.203125 -11.078125 L 15.25 0 Z M 12.34375 0 "></path>
        </g>
      </g>
    </g>
    <g fill="#004aad" fill-opacity="1">
      <g transform="translate(459.623104, 248.737961)">
        <g>
          <path d="M 1.53125 -11.078125 L 4.734375 -11.078125 L 4.734375 0 L 1.53125 0 Z M 3.125 -12.609375 C 2.53125 -12.609375 2.046875 -12.78125 1.671875 -13.125 C 1.304688 -13.46875 1.125 -13.894531 1.125 -14.40625 C 1.125 -14.914062 1.304688 -15.335938 1.671875 -15.671875 C 2.046875 -16.015625 2.53125 -16.1875 3.125 -16.1875 C 3.71875 -16.1875 4.195312 -16.019531 4.5625 -15.6875 C 4.9375 -15.363281 5.125 -14.957031 5.125 -14.46875 C 5.125 -13.925781 4.9375 -13.476562 4.5625 -13.125 C 4.195312 -12.78125 3.71875 -12.609375 3.125 -12.609375 Z M 3.125 -12.609375 "></path>
        </g>
      </g>
    </g>
    <g fill="#004aad" fill-opacity="1">
      <g transform="translate(466.967855, 248.737961)">
        <g>
          <path d="M 10 -5.78125 C 11.300781 -5.34375 11.953125 -4.46875 11.953125 -3.15625 C 11.953125 -2.144531 11.570312 -1.363281 10.8125 -0.8125 C 10.0625 -0.269531 8.941406 0 7.453125 0 L 1.546875 0 L 1.546875 -11.078125 L 7.203125 -11.078125 C 8.585938 -11.078125 9.671875 -10.820312 10.453125 -10.3125 C 11.234375 -9.8125 11.625 -9.109375 11.625 -8.203125 C 11.625 -7.660156 11.484375 -7.175781 11.203125 -6.75 C 10.921875 -6.332031 10.519531 -6.007812 10 -5.78125 Z M 4.484375 -6.515625 L 6.921875 -6.515625 C 8.046875 -6.515625 8.609375 -6.914062 8.609375 -7.71875 C 8.609375 -8.5 8.046875 -8.890625 6.921875 -8.890625 L 4.484375 -8.890625 Z M 7.1875 -2.1875 C 8.363281 -2.1875 8.953125 -2.585938 8.953125 -3.390625 C 8.953125 -3.816406 8.8125 -4.128906 8.53125 -4.328125 C 8.257812 -4.523438 7.832031 -4.625 7.25 -4.625 L 4.484375 -4.625 L 4.484375 -2.1875 Z M 7.1875 -2.1875 "></path>
        </g>
      </g>
    </g>
  </symbol>
  <symbol fill="none" xmlns="http://www.w3.org/2000/svg" viewBox="0 0 40 40" id="phone">
    <path d="M9.6791 4.15462C9.5389 3.97427 9.36193 3.82582 9.15994 3.71912C8.95796 3.61242 8.73559 3.54992 8.50759 3.53577C8.27959 3.52161 8.0512 3.55614 7.83757 3.63704C7.62394 3.71794 7.42997 3.84337 7.26855 4.005L4.81287 6.46307C3.66578 7.61254 3.24305 9.23938 3.74416 10.6667C5.82633 16.5735 9.20923 21.9368 13.6428 26.3603C18.0664 30.794 23.4297 34.1769 29.3364 36.2591C30.7637 36.7602 32.3905 36.3375 33.54 35.1904L35.9956 32.7347C36.1573 32.5732 36.2827 32.3793 36.3636 32.1656C36.4445 31.952 36.479 31.7236 36.4649 31.4956C36.4507 31.2676 36.3882 31.0453 36.2815 30.8433C36.1748 30.6413 36.0264 30.4643 35.846 30.3241L30.3671 26.0635C30.1742 25.9143 29.9501 25.8108 29.7116 25.7606C29.473 25.7104 29.2262 25.7149 28.9896 25.7737L23.7885 27.0728C23.0942 27.2452 22.3672 27.2354 21.6778 27.0444C20.9884 26.8534 20.3599 26.4877 19.8533 25.9827L14.0205 20.1475C13.515 19.6411 13.1489 19.0127 12.9575 18.3233C12.7661 17.6339 12.756 16.9067 12.928 16.2122L14.2295 11.0111C14.2883 10.7745 14.2927 10.5277 14.2426 10.2891C14.1924 10.0506 14.0888 9.82646 13.9397 9.63361L9.6791 4.15462ZM5.47548 2.2143C5.89108 1.79856 6.39037 1.476 6.94019 1.26803C7.49001 1.06006 8.07779 0.971434 8.66448 1.00805C9.25118 1.04466 9.82338 1.20567 10.3431 1.48038C10.8628 1.7551 11.3181 2.13723 11.6788 2.60141L15.9394 8.07803C16.7208 9.08263 16.9962 10.3912 16.6875 11.6262L15.3884 16.8273C15.3217 17.0967 15.3256 17.3788 15.3996 17.6463C15.4737 17.9138 15.6154 18.1576 15.8112 18.3544L21.6463 24.1896C21.8433 24.3858 22.0876 24.5277 22.3556 24.6018C22.6235 24.6759 22.906 24.6795 23.1758 24.6124L28.3745 23.3133C28.984 23.1618 29.6199 23.1504 30.2345 23.28C30.849 23.4095 31.4262 23.6767 31.9227 24.0614L37.3992 28.322C39.368 29.8539 39.5485 32.7632 37.7863 34.523L35.3307 36.9787C33.5732 38.7362 30.9466 39.508 28.498 38.6459C22.2298 36.4433 16.5392 32.8552 11.8498 28.1487C7.14356 23.4599 3.55547 17.7701 1.35261 11.5027C0.492884 9.0565 1.26474 6.42744 3.02218 4.66999L5.47548 2.2143Z" fill="#FCFEFF"></path>
  </symbol>
  <symbol fill="none" xmlns="http://www.w3.org/2000/svg" viewBox="0 0 60 60" id="telegram">
    <path d="M8.53486 27.7581C21.898 21.9373 30.8068 18.0997 35.2612 16.2454C47.9942 10.9509 50.6368 10.0314 52.3627 10.0003C52.7422 9.99418 53.5873 10.088 54.1387 10.5338C54.597 10.9098 54.7259 11.4182 54.7904 11.7752C54.8477 12.1319 54.9265 12.9447 54.862 13.5792C54.1745 20.8265 51.1882 38.4135 49.67 46.531C49.0326 49.9656 47.7651 51.1171 46.5405 51.2296C43.8764 51.4745 41.8569 49.4707 39.2788 47.7813C35.2469 45.1366 32.9696 43.4909 29.0523 40.9107C24.5263 37.9287 27.4625 36.2894 30.0406 33.6111C30.7137 32.91 42.4441 22.2431 42.6661 21.2755C42.6948 21.1545 42.7234 20.7033 42.4513 20.4656C42.1863 20.2271 41.7924 20.3088 41.506 20.3732C41.0978 20.4649 34.6597 24.7245 22.1702 33.1513C20.344 34.4074 18.6897 35.0197 17.2002 34.9875C15.5674 34.9524 12.4163 34.0622 10.0746 33.3017C7.21 32.3686 4.92551 31.8751 5.12603 30.2903C5.22629 29.4653 6.36496 28.621 8.53486 27.7581Z" fill="currentColor"></path>
  </symbol>
  <symbol fill="none" xmlns="http://www.w3.org/2000/svg" viewBox="0 0 60 60" id="tiktok">
    <path d="M52.1012 18.7971V16.9761C49.8812 16.9794 47.7052 16.3525 45.8217 15.1672C47.4889 17.0077 49.6843 18.2765 52.1012 18.7971ZM40.4036 7.08317C40.3472 6.75756 40.3038 6.42978 40.2737 6.10064V5H31.7369V39.1814C31.7233 43.1659 28.5163 46.3923 24.5611 46.3923C23.4399 46.394 22.3339 46.1296 21.3327 45.6205C22.6439 47.3556 24.7144 48.4755 27.0449 48.4755C30.9997 48.4755 34.2071 45.2494 34.221 41.2645V7.08335L40.4036 7.08317ZM26.7395 25.45V23.511C26.0261 23.4128 25.307 23.3635 24.587 23.3637C15.9225 23.3637 8.89893 30.4458 8.89893 39.1814C8.89893 44.6583 11.6593 49.485 15.8539 52.3242C13.0874 49.4726 11.3828 45.5695 11.3828 41.2644C11.3828 32.64 18.2277 25.6273 26.7395 25.45Z" fill='currentColor'></path>
    <path d="M40.2735 21.7172C43.6078 24.1198 47.6906 25.5334 52.1009 25.5334L52.1012 18.7971C49.6394 18.2683 47.4602 16.9714 45.8217 15.1672C43.0171 13.4023 40.9961 10.4908 40.4036 7.08317L34.221 7.08335V41.2645C34.2071 45.2494 30.9997 48.4755 27.0449 48.4755C24.7144 48.4755 22.6439 47.3556 21.3327 45.6205C18.9912 44.4289 17.3852 41.9819 17.3852 39.1566C17.3852 35.1608 20.5976 31.921 24.561 31.921C25.3204 31.921 26.0523 32.0402 26.7388 32.2598L26.7395 25.45C18.2277 25.6273 11.3828 32.64 11.3828 41.2644C11.3828 45.5695 13.0874 49.4726 15.8539 52.3242C18.3498 54.014 21.3538 55 24.5865 55C33.2502 55 40.2737 47.9178 40.2737 39.1814L40.2735 21.7172Z" fill='currentColor'></path>
  </symbol>
  <symbol fill="none" xmlns="http://www.w3.org/2000/svg" viewBox="0 0 60 60" id="viber">
    <path d="M48.6171 9.86755C47.3598 8.73237 42.2673 5.08312 30.9263 5.03521C30.9263 5.03521 17.5441 4.24579 11.0252 10.1425C7.39911 13.7168 6.12915 18.9511 5.98334 25.4435C5.83754 31.9359 5.67483 44.1043 17.5737 47.4119H17.5842L17.5737 52.4505C17.5737 52.4505 17.4955 54.4917 18.8563 54.9021C20.5003 55.4103 21.4723 53.8564 23.0466 52.1859C23.9087 51.2674 25.0963 49.9218 25.9986 48.895C31.1693 49.3679 36.384 48.9757 41.422 47.7348L41.1051 47.8014C42.749 47.2745 52.0509 46.1018 53.5554 33.9355C55.1275 21.3756 52.8074 13.4522 48.6171 9.86755ZM49.9948 33.019C48.7122 43.1732 41.1769 43.8189 39.7907 44.2563C36.7648 45.0145 33.2908 45.4478 29.7134 45.4478C28.685 45.4478 27.6672 45.4123 26.66 45.3415L26.7952 45.3498C26.7952 45.3498 21.6435 51.4715 20.0396 53.0629C19.5156 53.5794 18.9387 53.5378 18.9493 52.5067C18.9493 51.8339 18.9894 44.1376 18.9894 44.1376C8.91631 41.384 9.49953 31.0195 9.61786 25.606C9.73619 20.1925 10.7674 15.7434 13.8377 12.7565C19.3571 7.82631 30.7192 8.55741 30.7192 8.55741C40.319 8.59698 44.915 11.4485 45.9842 12.4045C49.5215 15.3935 51.324 22.5441 49.9948 33.019ZM36.2365 25.129V25.1582C36.232 25.3204 36.1646 25.4747 36.048 25.5893C35.9315 25.7039 35.7748 25.77 35.6102 25.774C35.4457 25.778 35.2858 25.7196 35.1637 25.6108C35.0415 25.5021 34.9664 25.3512 34.9538 25.1894C34.9969 24.7545 34.9436 24.3135 34.7979 23.9009C34.6521 23.4883 34.4172 23.1117 34.1094 22.7973C33.8017 22.4828 33.4283 22.2379 33.0152 22.0795C32.6021 21.9211 32.159 21.8529 31.7166 21.8797H31.725C31.5608 21.8671 31.4078 21.7929 31.2975 21.6723C31.1872 21.5517 31.1282 21.394 31.1325 21.2317C31.1368 21.0694 31.2043 20.9149 31.3208 20.8002C31.4374 20.6855 31.5942 20.6193 31.7588 20.6153H31.7948H31.7927L31.9385 20.6133C32.5284 20.6131 33.1121 20.7324 33.6533 20.9639C34.1945 21.1954 34.6816 21.534 35.0845 21.9589C35.4873 22.3837 35.7973 22.8856 35.9951 23.4335C36.1929 23.9813 36.2743 24.5634 36.2344 25.1436L36.2365 25.129ZM38.246 26.235C38.3454 22.0942 35.7209 18.8532 30.7382 18.4908C30.6518 18.4881 30.5667 18.4683 30.4883 18.4324C30.4098 18.3966 30.3394 18.3455 30.2815 18.2822C30.2235 18.2189 30.1791 18.1447 30.1509 18.0641C30.1228 17.9835 30.1114 17.8981 30.1175 17.8131C30.1236 17.728 30.1471 17.6451 30.1866 17.5692C30.226 17.4933 30.2806 17.426 30.347 17.3715C30.4135 17.3169 30.4904 17.2761 30.5733 17.2515C30.6561 17.227 30.7431 17.2191 30.8291 17.2285H30.827H30.8629C32.0454 17.2285 33.2154 17.4667 34.3011 17.9286C35.3868 18.3904 36.3653 19.0662 37.1764 19.9143C37.9876 20.7624 38.6143 21.765 39.018 22.8606C39.4218 23.9561 39.5942 25.1214 39.5245 26.285L39.5266 26.2621C39.5153 26.4235 39.4417 26.5746 39.3209 26.6842C39.2002 26.7938 39.0414 26.8537 38.8773 26.8516C38.7131 26.8495 38.556 26.7855 38.4382 26.6727C38.3205 26.56 38.2509 26.4071 38.2439 26.2454V26.2288L38.246 26.235ZM42.8948 27.5452V27.5493C42.8863 27.7108 42.8154 27.8629 42.6967 27.9745C42.578 28.0861 42.4205 28.1487 42.2565 28.1495C42.0925 28.1503 41.9344 28.0892 41.8146 27.9788C41.6948 27.8684 41.6224 27.717 41.6122 27.5556C41.5615 19.5947 36.1752 15.2602 29.6479 15.2144C29.4781 15.2144 29.3152 15.1479 29.1951 15.0295C29.0751 14.9112 29.0076 14.7506 29.0076 14.5833C29.0076 14.4159 29.0751 14.2553 29.1951 14.137C29.3152 14.0186 29.4781 13.9521 29.6479 13.9521C36.9571 14.0021 42.8315 18.974 42.8906 27.5431L42.8948 27.5452ZM41.7855 37.1224V37.1411C40.7162 38.997 38.7151 41.0466 36.6549 40.3925L36.6359 40.3634C32.9621 39.0322 29.5187 37.15 26.4275 34.7833L26.5141 34.8458C24.9761 33.6409 23.5805 32.2694 22.3535 30.757L22.3133 30.7049C21.2022 29.3276 20.2112 27.8602 19.3508 26.3183L19.2662 26.1538C18.2479 24.4978 17.4033 22.744 16.7453 20.9195L16.6819 20.7153C16.0184 18.6845 18.0871 16.712 19.9805 15.658H19.9995C20.3718 15.4225 20.8192 15.3308 21.256 15.4004C21.6927 15.4699 22.088 15.6959 22.3661 16.035L22.3683 16.0392C22.3683 16.0392 23.596 17.4827 24.1221 18.1971C24.6166 18.8615 25.2822 19.9259 25.6267 20.5195C25.886 20.9252 25.9915 21.4081 25.9246 21.883C25.8577 22.3579 25.6227 22.7942 25.2611 23.1148L25.259 23.1169L24.0714 24.0542C23.8861 24.2303 23.743 24.4448 23.6523 24.6823C23.5617 24.9197 23.5258 25.1741 23.5474 25.4269V25.4206C24.1356 27.3521 25.1969 29.1111 26.6378 30.5427C28.0787 31.9743 29.8548 33.0343 31.8096 33.6293L31.8983 33.6523C32.1535 33.6714 32.4097 33.6352 32.6492 33.5463C32.8887 33.4575 33.1055 33.318 33.2845 33.1378L34.2354 31.9672C34.5627 31.6102 35.0075 31.3787 35.4912 31.3135C35.9749 31.2484 36.4663 31.3537 36.8789 31.611L36.8704 31.6068C38.5884 32.5712 40.0739 33.6314 41.4284 34.8333L41.4051 34.8124C41.7487 35.0825 41.9774 35.4695 42.0462 35.8973C42.115 36.3251 42.019 36.7629 41.777 37.1245L41.7812 37.1182L41.7855 37.1224Z" fill='currentColor'></path>
  </symbol>
</svg>