<svg xmlns="http://www.w3.org/2000/svg" xmlns:xlink="http://www.w3.org/1999/xlink" width="700" zoomAndPan="magnify" viewBox="0 0 525 262.499992" height="350" preserveAspectRatio="xMidYMid meet" version="1.0"><defs><g/><clipPath id="bef4dc936e"><path d="M 428 29.097656 L 471 29.097656 L 471 92 L 428 92 Z M 428 29.097656 " clip-rule="nonzero"/></clipPath><clipPath id="370c8c0856"><path d="M 474 8.023438 L 510 8.023438 L 510 60 L 474 60 Z M 474 8.023438 " clip-rule="nonzero"/></clipPath><clipPath id="8e4e821734"><path d="M 13.597656 172.507812 L 499.421875 172.507812 L 499.421875 218 L 13.597656 218 Z M 13.597656 172.507812 " clip-rule="nonzero"/></clipPath><clipPath id="0378a1621c"><path d="M 0.5 46 L 264 46 L 264 208 L 0.5 208 Z M 0.5 46 " clip-rule="nonzero"/></clipPath><clipPath id="a8102c1d9c"><path d="M 167 46 L 524.5 46 L 524.5 208 L 167 208 Z M 167 46 " clip-rule="nonzero"/></clipPath></defs><g clip-path="url(#bef4dc936e)"><path fill="#38abff" d="M 467.804688 60.277344 L 449.25 29.929688 L 432.058594 60.070312 C 428.054688 66.457031 427.707031 74.761719 431.910156 81.640625 C 437.890625 91.417969 450.769531 94.554688 460.683594 88.660156 C 470.59375 82.761719 473.78125 70.0625 467.804688 60.277344 Z M 467.804688 60.277344 " fill-opacity="1" fill-rule="nonzero"/></g><g clip-path="url(#370c8c0856)"><path fill="#38abff" d="M 506.542969 33.519531 L 491.371094 8.699219 L 477.3125 33.351562 C 474.035156 38.574219 473.75 45.367188 477.191406 50.992188 C 482.078125 58.988281 492.613281 61.554688 500.71875 56.730469 C 508.824219 51.910156 511.433594 41.519531 506.542969 33.519531 Z M 506.542969 33.519531 " fill-opacity="1" fill-rule="nonzero"/></g><g clip-path="url(#8e4e821734)"><path fill="#7ed957" d="M 496.933594 183.871094 C 424.453125 206.609375 365.046875 217.972656 318.726562 217.972656 C 294.277344 217.972656 265.992188 214.644531 233.855469 207.976562 C 229.066406 207.121094 203.34375 201.050781 156.675781 189.769531 C 129.324219 183.105469 109.238281 179.769531 96.417969 179.769531 C 70.605469 179.769531 44.964844 190.027344 19.496094 210.539062 C 18.808594 211.054688 18.125 211.3125 17.445312 211.3125 C 14.878906 211.3125 13.597656 210.117188 13.597656 207.722656 C 13.597656 206.867188 14.027344 206.097656 14.878906 205.410156 C 40.691406 183.703125 69.75 172.847656 102.058594 172.847656 C 124.113281 172.847656 147.699219 175.15625 172.828125 179.769531 C 195.046875 184.046875 217.1875 188.402344 239.238281 192.847656 C 267.273438 197.460938 295.476562 199.773438 323.855469 199.773438 C 389.492188 199.773438 446.503906 192.25 494.878906 177.207031 C 497.953125 176.355469 499.492188 177.550781 499.492188 180.796875 C 499.492188 182.335938 498.636719 183.359375 496.933594 183.871094 Z M 496.933594 183.871094 " fill-opacity="1" fill-rule="nonzero"/></g><g clip-path="url(#0378a1621c)"><path stroke-linecap="butt" transform="matrix(0.661755, 0, 0, 0.661755, 17.536397, 75.451341)" fill="none" stroke-linejoin="miter" d="M 97.153328 38.459841 L 97.153328 118.000904 L 77.786038 118.000904 L 77.786038 70.30578 L 60.000716 118.000904 L 44.369938 118.000904 L 26.442946 70.164112 L 26.442946 118.000904 L 7.075657 118.000904 L 7.075657 38.459841 L 29.955149 38.459841 L 52.279773 93.515833 L 74.38599 38.459841 Z M 172.515165 103.94619 L 142.829673 103.94619 L 138.071966 118.000904 L 117.795636 118.000904 L 146.566185 38.459841 L 169.002962 38.459841 L 197.773511 118.000904 L 177.272872 118.000904 Z M 167.539053 88.976532 L 157.657662 59.875423 L 147.923843 88.976532 Z M 267.126235 118.000904 L 250.940587 93.627987 L 236.637953 118.000904 L 214.667501 118.000904 L 240.150156 77.554495 L 214.089021 38.459841 L 236.637953 38.459841 L 252.628806 62.472683 L 266.68352 38.459841 L 288.648069 38.459841 L 263.389723 78.57569 L 289.675167 118.000904 Z M 267.126235 118.000904 " stroke="#004aad" stroke-width="14.449448" stroke-opacity="1" stroke-miterlimit="4"/></g><g clip-path="url(#a8102c1d9c)"><path stroke-linecap="butt" transform="matrix(0.661755, 0, 0, 0.661755, 17.536397, 75.451341)" fill="none" stroke-linejoin="miter" d="M 308.033067 78.103461 C 308.033067 70.246752 309.727188 63.25186 313.121334 57.106981 C 316.533188 50.944393 321.273186 46.15127 327.341328 42.721707 C 333.427179 39.274436 340.327624 37.544897 348.036762 37.544897 C 357.481341 37.544897 365.556456 40.04771 372.273912 45.047434 C 379.003175 50.023547 383.507058 56.811838 385.773757 65.406405 L 364.470329 65.406405 C 362.882459 62.088997 360.633469 59.562572 357.717455 57.82713 C 354.825053 56.091689 351.525353 55.223968 347.818356 55.223968 C 341.838757 55.223968 336.99841 57.301776 333.291413 61.451487 C 329.602124 65.601199 327.760431 71.149889 327.760431 78.103461 C 327.760431 85.057032 329.602124 90.617528 333.291413 94.790851 C 336.99841 98.940563 341.838757 101.012467 347.818356 101.012467 C 351.525353 101.012467 354.825053 100.144747 357.717455 98.415208 C 360.633469 96.662058 362.882459 94.123828 364.470329 90.806419 L 385.773757 90.806419 C 383.507058 99.418695 379.003175 106.19518 372.273912 111.135875 C 365.556456 116.082474 357.481341 118.555773 348.036762 118.555773 C 340.327624 118.555773 333.427179 116.83804 327.341328 113.408477 C 321.273186 109.978915 316.533188 105.197596 313.121334 99.076329 C 309.727188 92.955061 308.033067 85.96017 308.033067 78.103461 Z M 428.935483 103.031246 L 454.329595 103.031246 L 454.329595 118.000904 L 409.568193 118.000904 L 409.568193 38.459841 L 428.935483 38.459841 Z M 494.882255 53.978464 L 494.882255 70.051957 L 520.837139 70.051957 L 520.837139 85.021615 L 494.882255 85.021615 L 494.882255 102.48228 L 524.237187 102.48228 L 524.237187 118.000904 L 475.514966 118.000904 L 475.514966 38.459841 L 524.237187 38.459841 L 524.237187 53.978464 Z M 598.241366 103.94619 L 568.555874 103.94619 L 563.798167 118.000904 L 543.515934 118.000904 L 572.292385 38.459841 L 594.729163 38.459841 L 623.499712 118.000904 L 602.999073 118.000904 Z M 593.259351 88.976532 L 583.383863 59.875423 L 573.644141 88.976532 Z M 715.289213 118.000904 L 695.921924 118.000904 L 663.497503 68.918608 L 663.497503 118.000904 L 644.130214 118.000904 L 644.130214 38.459841 L 663.497503 38.459841 L 695.921924 87.731028 L 695.921924 38.459841 L 715.289213 38.459841 Z M 715.289213 118.000904 " stroke="#004aad" stroke-width="14.449448" stroke-opacity="1" stroke-miterlimit="4"/></g><g fill="#38abff" fill-opacity="1"><g transform="translate(17.567417, 153.538464)"><g><path d="M 64.265625 -52.640625 L 64.265625 0 L 51.4375 0 L 51.4375 -31.5625 L 39.671875 0 L 29.3125 0 L 17.46875 -31.640625 L 17.46875 0 L 4.65625 0 L 4.65625 -52.640625 L 19.796875 -52.640625 L 34.5625 -16.203125 L 49.1875 -52.640625 Z M 64.265625 -52.640625 "/></g></g></g><g fill="#38abff" fill-opacity="1"><g transform="translate(94.278356, 153.538464)"><g><path d="M 37.421875 -9.296875 L 17.765625 -9.296875 L 14.625 0 L 1.203125 0 L 20.25 -52.640625 L 35.09375 -52.640625 L 54.140625 0 L 40.5625 0 Z M 34.125 -19.203125 L 27.59375 -38.46875 L 21.140625 -19.203125 Z M 34.125 -19.203125 "/></g></g></g><g fill="#38abff" fill-opacity="1"><g transform="translate(157.41699, 153.538464)"><g><path d="M 36.890625 0 L 26.171875 -16.125 L 16.71875 0 L 2.171875 0 L 19.046875 -26.765625 L 1.796875 -52.640625 L 16.71875 -52.640625 L 27.296875 -36.75 L 36.59375 -52.640625 L 51.140625 -52.640625 L 34.421875 -26.09375 L 51.8125 0 Z M 36.890625 0 "/></g></g></g><g fill="#7ed957" fill-opacity="1"><g transform="translate(218.906465, 153.538464)"><g><path d="M 2.46875 -26.390625 C 2.46875 -31.585938 3.59375 -36.222656 5.84375 -40.296875 C 8.09375 -44.378906 11.226562 -47.554688 15.25 -49.828125 C 19.28125 -52.097656 23.84375 -53.234375 28.9375 -53.234375 C 35.1875 -53.234375 40.535156 -51.582031 44.984375 -48.28125 C 49.441406 -44.988281 52.414062 -40.492188 53.90625 -34.796875 L 39.8125 -34.796875 C 38.757812 -36.992188 37.269531 -38.664062 35.34375 -39.8125 C 33.425781 -40.96875 31.242188 -41.546875 28.796875 -41.546875 C 24.847656 -41.546875 21.644531 -40.171875 19.1875 -37.421875 C 16.738281 -34.671875 15.515625 -30.992188 15.515625 -26.390625 C 15.515625 -21.796875 16.738281 -18.125 19.1875 -15.375 C 21.644531 -12.625 24.847656 -11.25 28.796875 -11.25 C 31.242188 -11.25 33.425781 -11.820312 35.34375 -12.96875 C 37.269531 -14.125 38.757812 -15.800781 39.8125 -18 L 53.90625 -18 C 52.414062 -12.300781 49.441406 -7.8125 44.984375 -4.53125 C 40.535156 -1.257812 35.1875 0.375 28.9375 0.375 C 23.84375 0.375 19.28125 -0.757812 15.25 -3.03125 C 11.226562 -5.3125 8.09375 -8.472656 5.84375 -12.515625 C 3.59375 -16.566406 2.46875 -21.191406 2.46875 -26.390625 Z M 2.46875 -26.390625 "/></g></g></g><g fill="#7ed957" fill-opacity="1"><g transform="translate(283.919726, 153.538464)"><g><path d="M 17.46875 -9.890625 L 34.265625 -9.890625 L 34.265625 0 L 4.65625 0 L 4.65625 -52.640625 L 17.46875 -52.640625 Z M 17.46875 -9.890625 "/></g></g></g><g fill="#7ed957" fill-opacity="1"><g transform="translate(327.562217, 153.538464)"><g><path d="M 17.46875 -42.359375 L 17.46875 -31.71875 L 34.640625 -31.71875 L 34.640625 -21.828125 L 17.46875 -21.828125 L 17.46875 -10.265625 L 36.890625 -10.265625 L 36.890625 0 L 4.65625 0 L 4.65625 -52.640625 L 36.890625 -52.640625 L 36.890625 -42.359375 Z M 17.46875 -42.359375 "/></g></g></g><g fill="#7ed957" fill-opacity="1"><g transform="translate(376.003752, 153.538464)"><g><path d="M 37.421875 -9.296875 L 17.765625 -9.296875 L 14.625 0 L 1.203125 0 L 20.25 -52.640625 L 35.09375 -52.640625 L 54.140625 0 L 40.5625 0 Z M 34.125 -19.203125 L 27.59375 -38.46875 L 21.140625 -19.203125 Z M 34.125 -19.203125 "/></g></g></g><g fill="#7ed957" fill-opacity="1"><g transform="translate(439.142392, 153.538464)"><g><path d="M 51.734375 0 L 38.921875 0 L 17.46875 -32.46875 L 17.46875 0 L 4.65625 0 L 4.65625 -52.640625 L 17.46875 -52.640625 L 38.921875 -20.015625 L 38.921875 -52.640625 L 51.734375 -52.640625 Z M 51.734375 0 "/></g></g></g><g fill="#004aad" fill-opacity="1"><g transform="translate(33.327504, 248.737961)"><g><path d="M 4.390625 -14.40625 L 7.359375 -10.046875 L 10.34375 -14.40625 L 14.265625 -14.40625 L 9.46875 -7.515625 L 14.65625 0 L 10.71875 0 L 7.359375 -4.78125 L 4.046875 0 L 0.203125 0 L 5.34375 -7.359375 L 0.53125 -14.40625 Z M 4.390625 -14.40625 "/></g></g></g><g fill="#004aad" fill-opacity="1"><g transform="translate(49.045291, 248.737961)"><g><path d="M 1.53125 -11.078125 L 4.734375 -11.078125 L 4.734375 0 L 1.53125 0 Z M 3.125 -12.609375 C 2.53125 -12.609375 2.046875 -12.78125 1.671875 -13.125 C 1.304688 -13.46875 1.125 -13.894531 1.125 -14.40625 C 1.125 -14.914062 1.304688 -15.335938 1.671875 -15.671875 C 2.046875 -16.015625 2.53125 -16.1875 3.125 -16.1875 C 3.71875 -16.1875 4.195312 -16.019531 4.5625 -15.6875 C 4.9375 -15.363281 5.125 -14.957031 5.125 -14.46875 C 5.125 -13.925781 4.9375 -13.476562 4.5625 -13.125 C 4.195312 -12.78125 3.71875 -12.609375 3.125 -12.609375 Z M 3.125 -12.609375 "/></g></g></g><g fill="#004aad" fill-opacity="1"><g transform="translate(56.390048, 248.737961)"><g><path d="M 12.34375 0 L 12.34375 -6.625 L 9.03125 -1.0625 L 7.671875 -1.0625 L 4.4375 -6.640625 L 4.4375 0 L 1.546875 0 L 1.546875 -11.078125 L 4.890625 -11.078125 L 8.4375 -4.671875 L 12.203125 -11.078125 L 15.203125 -11.078125 L 15.25 0 Z M 12.34375 0 "/></g></g></g><g fill="#004aad" fill-opacity="1"><g transform="translate(74.226832, 248.737961)"><g><path d="M 11.5 -11.078125 L 11.5 0 L 8.296875 0 L 8.296875 -4.109375 C 7.359375 -3.648438 6.328125 -3.421875 5.203125 -3.421875 C 3.710938 -3.421875 2.582031 -3.757812 1.8125 -4.4375 C 1.050781 -5.113281 0.671875 -6.164062 0.671875 -7.59375 L 0.671875 -11.078125 L 3.890625 -11.078125 L 3.890625 -7.796875 C 3.890625 -7.128906 4.0625 -6.644531 4.40625 -6.34375 C 4.757812 -6.039062 5.265625 -5.890625 5.921875 -5.890625 C 6.765625 -5.890625 7.554688 -6.066406 8.296875 -6.421875 L 8.296875 -11.078125 Z M 11.5 -11.078125 "/></g></g></g><g fill="#004aad" fill-opacity="1"><g transform="translate(88.339967, 248.737961)"><g><path d="M 1.546875 -11.078125 L 4.734375 -11.078125 L 4.734375 -4.484375 L 10.125 -11.078125 L 13.0625 -11.078125 L 13.0625 0 L 9.875 0 L 9.875 -6.578125 L 4.5 0 L 1.546875 0 Z M 1.546875 -11.078125 "/></g></g></g><g fill="#004aad" fill-opacity="1"><g transform="translate(104.016626, 248.737961)"><g><path d="M 6.8125 0.171875 C 5.632812 0.171875 4.578125 -0.0703125 3.640625 -0.5625 C 2.703125 -1.050781 1.96875 -1.726562 1.4375 -2.59375 C 0.90625 -3.457031 0.640625 -4.4375 0.640625 -5.53125 C 0.640625 -6.632812 0.90625 -7.617188 1.4375 -8.484375 C 1.96875 -9.347656 2.703125 -10.019531 3.640625 -10.5 C 4.578125 -10.988281 5.632812 -11.234375 6.8125 -11.234375 C 7.976562 -11.234375 8.992188 -10.988281 9.859375 -10.5 C 10.734375 -10.019531 11.375 -9.328125 11.78125 -8.421875 L 9.28125 -7.078125 C 8.707031 -8.097656 7.878906 -8.609375 6.796875 -8.609375 C 5.960938 -8.609375 5.269531 -8.332031 4.71875 -7.78125 C 4.164062 -7.226562 3.890625 -6.476562 3.890625 -5.53125 C 3.890625 -4.582031 4.164062 -3.832031 4.71875 -3.28125 C 5.269531 -2.738281 5.960938 -2.46875 6.796875 -2.46875 C 7.890625 -2.46875 8.71875 -2.972656 9.28125 -3.984375 L 11.78125 -2.640625 C 11.375 -1.753906 10.734375 -1.0625 9.859375 -0.5625 C 8.992188 -0.0703125 7.976562 0.171875 6.8125 0.171875 Z M 6.8125 0.171875 "/></g></g></g><g fill="#004aad" fill-opacity="1"><g transform="translate(117.224572, 248.737961)"><g><path d="M 10.84375 -8.4375 L 7.09375 -8.4375 L 7.09375 0 L 3.90625 0 L 3.90625 -8.4375 L 0.171875 -8.4375 L 0.171875 -11.078125 L 10.84375 -11.078125 Z M 10.84375 -8.4375 "/></g></g></g><g fill="#004aad" fill-opacity="1"><g transform="translate(129.301028, 248.737961)"><g><path d="M 6.421875 -4.203125 L 4.75 -4.203125 L 4.75 0 L 1.546875 0 L 1.546875 -11.078125 L 4.75 -11.078125 L 4.75 -6.765625 L 6.484375 -6.765625 L 9.484375 -11.078125 L 12.90625 -11.078125 L 9.03125 -5.765625 L 13.171875 0 L 9.390625 0 Z M 6.421875 -4.203125 "/></g></g></g><g fill="#004aad" fill-opacity="1"><g transform="translate(143.373013, 248.737961)"><g><path d="M 5.84375 -11.234375 C 7.550781 -11.234375 8.863281 -10.820312 9.78125 -10 C 10.707031 -9.1875 11.171875 -7.957031 11.171875 -6.3125 L 11.171875 0 L 8.15625 0 L 8.15625 -1.375 C 7.550781 -0.34375 6.425781 0.171875 4.78125 0.171875 C 3.9375 0.171875 3.203125 0.0234375 2.578125 -0.265625 C 1.953125 -0.554688 1.472656 -0.953125 1.140625 -1.453125 C 0.816406 -1.960938 0.65625 -2.539062 0.65625 -3.1875 C 0.65625 -4.21875 1.039062 -5.023438 1.8125 -5.609375 C 2.59375 -6.203125 3.789062 -6.5 5.40625 -6.5 L 7.953125 -6.5 C 7.953125 -7.195312 7.738281 -7.734375 7.3125 -8.109375 C 6.894531 -8.492188 6.257812 -8.6875 5.40625 -8.6875 C 4.8125 -8.6875 4.226562 -8.59375 3.65625 -8.40625 C 3.09375 -8.21875 2.613281 -7.96875 2.21875 -7.65625 L 1.0625 -9.890625 C 1.664062 -10.316406 2.390625 -10.644531 3.234375 -10.875 C 4.078125 -11.113281 4.945312 -11.234375 5.84375 -11.234375 Z M 5.59375 -2 C 6.132812 -2 6.617188 -2.125 7.046875 -2.375 C 7.472656 -2.625 7.773438 -3 7.953125 -3.5 L 7.953125 -4.625 L 5.75 -4.625 C 4.4375 -4.625 3.78125 -4.191406 3.78125 -3.328125 C 3.78125 -2.921875 3.941406 -2.597656 4.265625 -2.359375 C 4.585938 -2.117188 5.03125 -2 5.59375 -2 Z M 5.59375 -2 "/></g></g></g><g fill="#004aad" fill-opacity="1"><g transform="translate(156.868981, 248.737961)"><g/></g></g><g fill="#004aad" fill-opacity="1"><g transform="translate(163.761144, 248.737961)"><g><path d="M 12.34375 0 L 12.34375 -6.625 L 9.03125 -1.0625 L 7.671875 -1.0625 L 4.4375 -6.640625 L 4.4375 0 L 1.546875 0 L 1.546875 -11.078125 L 4.890625 -11.078125 L 8.4375 -4.671875 L 12.203125 -11.078125 L 15.203125 -11.078125 L 15.25 0 Z M 12.34375 0 "/></g></g></g><g fill="#004aad" fill-opacity="1"><g transform="translate(181.59793, 248.737961)"><g><path d="M 12.3125 -5.5 C 12.3125 -5.457031 12.289062 -5.164062 12.25 -4.625 L 3.875 -4.625 C 4.019531 -3.9375 4.375 -3.394531 4.9375 -3 C 5.5 -2.601562 6.203125 -2.40625 7.046875 -2.40625 C 7.617188 -2.40625 8.128906 -2.488281 8.578125 -2.65625 C 9.023438 -2.832031 9.441406 -3.109375 9.828125 -3.484375 L 11.53125 -1.625 C 10.488281 -0.425781 8.960938 0.171875 6.953125 0.171875 C 5.710938 0.171875 4.609375 -0.0703125 3.640625 -0.5625 C 2.679688 -1.050781 1.941406 -1.726562 1.421875 -2.59375 C 0.898438 -3.457031 0.640625 -4.4375 0.640625 -5.53125 C 0.640625 -6.613281 0.894531 -7.59375 1.40625 -8.46875 C 1.925781 -9.34375 2.632812 -10.019531 3.53125 -10.5 C 4.425781 -10.988281 5.429688 -11.234375 6.546875 -11.234375 C 7.628906 -11.234375 8.609375 -11 9.484375 -10.53125 C 10.367188 -10.070312 11.0625 -9.40625 11.5625 -8.53125 C 12.0625 -7.65625 12.3125 -6.644531 12.3125 -5.5 Z M 6.5625 -8.8125 C 5.84375 -8.8125 5.234375 -8.601562 4.734375 -8.1875 C 4.242188 -7.78125 3.941406 -7.21875 3.828125 -6.5 L 9.28125 -6.5 C 9.175781 -7.195312 8.875 -7.753906 8.375 -8.171875 C 7.882812 -8.597656 7.28125 -8.8125 6.5625 -8.8125 Z M 6.5625 -8.8125 "/></g></g></g><g fill="#004aad" fill-opacity="1"><g transform="translate(195.896219, 248.737961)"><g><path d="M 7.9375 -10.3125 C 9 -10.3125 9.925781 -10.09375 10.71875 -9.65625 C 11.519531 -9.226562 12.132812 -8.625 12.5625 -7.84375 C 13 -7.0625 13.21875 -6.15625 13.21875 -5.125 C 13.21875 -4.070312 12.957031 -3.132812 12.4375 -2.3125 C 11.925781 -1.5 11.207031 -0.867188 10.28125 -0.421875 C 9.363281 0.0234375 8.320312 0.25 7.15625 0.25 C 5.226562 0.25 3.710938 -0.367188 2.609375 -1.609375 C 1.503906 -2.859375 0.953125 -4.679688 0.953125 -7.078125 C 0.953125 -9.296875 1.429688 -11.066406 2.390625 -12.390625 C 3.359375 -13.722656 4.847656 -14.59375 6.859375 -15 L 12.125 -16.046875 L 12.546875 -13.296875 L 7.90625 -12.375 C 6.644531 -12.125 5.707031 -11.707031 5.09375 -11.125 C 4.476562 -10.550781 4.117188 -9.738281 4.015625 -8.6875 C 4.492188 -9.207031 5.066406 -9.609375 5.734375 -9.890625 C 6.410156 -10.171875 7.144531 -10.3125 7.9375 -10.3125 Z M 7.1875 -2.25 C 8.007812 -2.25 8.671875 -2.515625 9.171875 -3.046875 C 9.671875 -3.578125 9.921875 -4.253906 9.921875 -5.078125 C 9.921875 -5.921875 9.671875 -6.585938 9.171875 -7.078125 C 8.671875 -7.566406 8.007812 -7.8125 7.1875 -7.8125 C 6.34375 -7.8125 5.664062 -7.566406 5.15625 -7.078125 C 4.65625 -6.585938 4.40625 -5.921875 4.40625 -5.078125 C 4.40625 -4.242188 4.664062 -3.5625 5.1875 -3.03125 C 5.707031 -2.507812 6.375 -2.25 7.1875 -2.25 Z M 7.1875 -2.25 "/></g></g></g><g fill="#004aad" fill-opacity="1"><g transform="translate(210.647096, 248.737961)"><g><path d="M 12.15625 -11.078125 L 12.15625 0 L 8.953125 0 L 8.953125 -8.4375 L 5.453125 -8.4375 L 5.34375 -6.484375 C 5.289062 -5.023438 5.15625 -3.816406 4.9375 -2.859375 C 4.71875 -1.898438 4.359375 -1.144531 3.859375 -0.59375 C 3.367188 -0.0507812 2.6875 0.21875 1.8125 0.21875 C 1.34375 0.21875 0.785156 0.140625 0.140625 -0.015625 L 0.3125 -2.65625 C 0.53125 -2.625 0.6875 -2.609375 0.78125 -2.609375 C 1.257812 -2.609375 1.617188 -2.78125 1.859375 -3.125 C 2.097656 -3.476562 2.257812 -3.925781 2.34375 -4.46875 C 2.425781 -5.007812 2.488281 -5.726562 2.53125 -6.625 L 2.703125 -11.078125 Z M 12.15625 -11.078125 "/></g></g></g><g fill="#004aad" fill-opacity="1"><g transform="translate(225.418555, 248.737961)"><g><path d="M 1.53125 -11.078125 L 4.734375 -11.078125 L 4.734375 0 L 1.53125 0 Z M 3.125 -12.609375 C 2.53125 -12.609375 2.046875 -12.78125 1.671875 -13.125 C 1.304688 -13.46875 1.125 -13.894531 1.125 -14.40625 C 1.125 -14.914062 1.304688 -15.335938 1.671875 -15.671875 C 2.046875 -16.015625 2.53125 -16.1875 3.125 -16.1875 C 3.71875 -16.1875 4.195312 -16.019531 4.5625 -15.6875 C 4.9375 -15.363281 5.125 -14.957031 5.125 -14.46875 C 5.125 -13.925781 4.9375 -13.476562 4.5625 -13.125 C 4.195312 -12.78125 3.71875 -12.609375 3.125 -12.609375 Z M 3.125 -12.609375 "/></g></g></g><g fill="#004aad" fill-opacity="1"><g transform="translate(232.763306, 248.737961)"><g><path d="M 10 -5.78125 C 11.300781 -5.34375 11.953125 -4.46875 11.953125 -3.15625 C 11.953125 -2.144531 11.570312 -1.363281 10.8125 -0.8125 C 10.0625 -0.269531 8.941406 0 7.453125 0 L 1.546875 0 L 1.546875 -11.078125 L 7.203125 -11.078125 C 8.585938 -11.078125 9.671875 -10.820312 10.453125 -10.3125 C 11.234375 -9.8125 11.625 -9.109375 11.625 -8.203125 C 11.625 -7.660156 11.484375 -7.175781 11.203125 -6.75 C 10.921875 -6.332031 10.519531 -6.007812 10 -5.78125 Z M 4.484375 -6.515625 L 6.921875 -6.515625 C 8.046875 -6.515625 8.609375 -6.914062 8.609375 -7.71875 C 8.609375 -8.5 8.046875 -8.890625 6.921875 -8.890625 L 4.484375 -8.890625 Z M 7.1875 -2.1875 C 8.363281 -2.1875 8.953125 -2.585938 8.953125 -3.390625 C 8.953125 -3.816406 8.8125 -4.128906 8.53125 -4.328125 C 8.257812 -4.523438 7.832031 -4.625 7.25 -4.625 L 4.484375 -4.625 L 4.484375 -2.1875 Z M 7.1875 -2.1875 "/></g></g></g><g fill="#004aad" fill-opacity="1"><g transform="translate(246.62957, 248.737961)"><g/></g></g><g fill="#004aad" fill-opacity="1"><g transform="translate(253.521732, 248.737961)"><g><path d="M 10.84375 -8.4375 L 7.09375 -8.4375 L 7.09375 0 L 3.90625 0 L 3.90625 -8.4375 L 0.171875 -8.4375 L 0.171875 -11.078125 L 10.84375 -11.078125 Z M 10.84375 -8.4375 "/></g></g></g><g fill="#004aad" fill-opacity="1"><g transform="translate(265.598188, 248.737961)"><g><path d="M 5.84375 -11.234375 C 7.550781 -11.234375 8.863281 -10.820312 9.78125 -10 C 10.707031 -9.1875 11.171875 -7.957031 11.171875 -6.3125 L 11.171875 0 L 8.15625 0 L 8.15625 -1.375 C 7.550781 -0.34375 6.425781 0.171875 4.78125 0.171875 C 3.9375 0.171875 3.203125 0.0234375 2.578125 -0.265625 C 1.953125 -0.554688 1.472656 -0.953125 1.140625 -1.453125 C 0.816406 -1.960938 0.65625 -2.539062 0.65625 -3.1875 C 0.65625 -4.21875 1.039062 -5.023438 1.8125 -5.609375 C 2.59375 -6.203125 3.789062 -6.5 5.40625 -6.5 L 7.953125 -6.5 C 7.953125 -7.195312 7.738281 -7.734375 7.3125 -8.109375 C 6.894531 -8.492188 6.257812 -8.6875 5.40625 -8.6875 C 4.8125 -8.6875 4.226562 -8.59375 3.65625 -8.40625 C 3.09375 -8.21875 2.613281 -7.96875 2.21875 -7.65625 L 1.0625 -9.890625 C 1.664062 -10.316406 2.390625 -10.644531 3.234375 -10.875 C 4.078125 -11.113281 4.945312 -11.234375 5.84375 -11.234375 Z M 5.59375 -2 C 6.132812 -2 6.617188 -2.125 7.046875 -2.375 C 7.472656 -2.625 7.773438 -3 7.953125 -3.5 L 7.953125 -4.625 L 5.75 -4.625 C 4.4375 -4.625 3.78125 -4.191406 3.78125 -3.328125 C 3.78125 -2.921875 3.941406 -2.597656 4.265625 -2.359375 C 4.585938 -2.117188 5.03125 -2 5.59375 -2 Z M 5.59375 -2 "/></g></g></g><g fill="#004aad" fill-opacity="1"><g transform="translate(279.094156, 248.737961)"><g/></g></g><g fill="#004aad" fill-opacity="1"><g transform="translate(285.986319, 248.737961)"><g><path d="M 12.546875 -11.078125 L 12.546875 0 L 9.34375 0 L 9.34375 -8.4375 L 4.734375 -8.4375 L 4.734375 0 L 1.546875 0 L 1.546875 -11.078125 Z M 12.546875 -11.078125 "/></g></g></g><g fill="#004aad" fill-opacity="1"><g transform="translate(301.148656, 248.737961)"><g><path d="M 8.078125 -11.234375 C 9.097656 -11.234375 10.03125 -10.992188 10.875 -10.515625 C 11.71875 -10.046875 12.378906 -9.382812 12.859375 -8.53125 C 13.347656 -7.675781 13.59375 -6.675781 13.59375 -5.53125 C 13.59375 -4.394531 13.347656 -3.394531 12.859375 -2.53125 C 12.378906 -1.675781 11.71875 -1.007812 10.875 -0.53125 C 10.03125 -0.0625 9.097656 0.171875 8.078125 0.171875 C 6.660156 0.171875 5.546875 -0.273438 4.734375 -1.171875 L 4.734375 3.984375 L 1.53125 3.984375 L 1.53125 -11.078125 L 4.59375 -11.078125 L 4.59375 -9.796875 C 5.382812 -10.753906 6.546875 -11.234375 8.078125 -11.234375 Z M 7.515625 -2.46875 C 8.335938 -2.46875 9.015625 -2.742188 9.546875 -3.296875 C 10.078125 -3.859375 10.34375 -4.601562 10.34375 -5.53125 C 10.34375 -6.46875 10.078125 -7.210938 9.546875 -7.765625 C 9.015625 -8.328125 8.335938 -8.609375 7.515625 -8.609375 C 6.691406 -8.609375 6.015625 -8.328125 5.484375 -7.765625 C 4.960938 -7.210938 4.703125 -6.46875 4.703125 -5.53125 C 4.703125 -4.601562 4.960938 -3.859375 5.484375 -3.296875 C 6.015625 -2.742188 6.691406 -2.46875 7.515625 -2.46875 Z M 7.515625 -2.46875 "/></g></g></g><g fill="#004aad" fill-opacity="1"><g transform="translate(316.310975, 248.737961)"><g><path d="M 5.84375 -11.234375 C 7.550781 -11.234375 8.863281 -10.820312 9.78125 -10 C 10.707031 -9.1875 11.171875 -7.957031 11.171875 -6.3125 L 11.171875 0 L 8.15625 0 L 8.15625 -1.375 C 7.550781 -0.34375 6.425781 0.171875 4.78125 0.171875 C 3.9375 0.171875 3.203125 0.0234375 2.578125 -0.265625 C 1.953125 -0.554688 1.472656 -0.953125 1.140625 -1.453125 C 0.816406 -1.960938 0.65625 -2.539062 0.65625 -3.1875 C 0.65625 -4.21875 1.039062 -5.023438 1.8125 -5.609375 C 2.59375 -6.203125 3.789062 -6.5 5.40625 -6.5 L 7.953125 -6.5 C 7.953125 -7.195312 7.738281 -7.734375 7.3125 -8.109375 C 6.894531 -8.492188 6.257812 -8.6875 5.40625 -8.6875 C 4.8125 -8.6875 4.226562 -8.59375 3.65625 -8.40625 C 3.09375 -8.21875 2.613281 -7.96875 2.21875 -7.65625 L 1.0625 -9.890625 C 1.664062 -10.316406 2.390625 -10.644531 3.234375 -10.875 C 4.078125 -11.113281 4.945312 -11.234375 5.84375 -11.234375 Z M 5.59375 -2 C 6.132812 -2 6.617188 -2.125 7.046875 -2.375 C 7.472656 -2.625 7.773438 -3 7.953125 -3.5 L 7.953125 -4.625 L 5.75 -4.625 C 4.4375 -4.625 3.78125 -4.191406 3.78125 -3.328125 C 3.78125 -2.921875 3.941406 -2.597656 4.265625 -2.359375 C 4.585938 -2.117188 5.03125 -2 5.59375 -2 Z M 5.59375 -2 "/></g></g></g><g fill="#004aad" fill-opacity="1"><g transform="translate(329.806943, 248.737961)"><g><path d="M 1.546875 -11.078125 L 4.734375 -11.078125 L 4.734375 -6.75 L 9.546875 -6.75 L 9.546875 -11.078125 L 12.765625 -11.078125 L 12.765625 0 L 9.546875 0 L 9.546875 -4.140625 L 4.734375 -4.140625 L 4.734375 0 L 1.546875 0 Z M 1.546875 -11.078125 "/></g></g></g><g fill="#004aad" fill-opacity="1"><g transform="translate(345.154429, 248.737961)"><g><path d="M 1.546875 -11.078125 L 4.734375 -11.078125 L 4.734375 -6.75 L 9.546875 -6.75 L 9.546875 -11.078125 L 12.765625 -11.078125 L 12.765625 0 L 9.546875 0 L 9.546875 -4.140625 L 4.734375 -4.140625 L 4.734375 0 L 1.546875 0 Z M 1.546875 -11.078125 "/></g></g></g><g fill="#004aad" fill-opacity="1"><g transform="translate(360.501933, 248.737961)"><g><path d="M 11.375 -11.078125 L 11.375 0 L 8.515625 0 L 8.515625 -3.171875 L 6.15625 -3.171875 L 4.046875 0 L 0.640625 0 L 3.171875 -3.625 C 2.398438 -3.925781 1.8125 -4.359375 1.40625 -4.921875 C 1 -5.492188 0.796875 -6.1875 0.796875 -7 C 0.796875 -8.300781 1.265625 -9.304688 2.203125 -10.015625 C 3.148438 -10.722656 4.445312 -11.078125 6.09375 -11.078125 Z M 6.15625 -8.453125 C 5.46875 -8.453125 4.945312 -8.328125 4.59375 -8.078125 C 4.25 -7.835938 4.078125 -7.441406 4.078125 -6.890625 C 4.078125 -6.347656 4.242188 -5.945312 4.578125 -5.6875 C 4.910156 -5.4375 5.421875 -5.3125 6.109375 -5.3125 L 8.515625 -5.3125 L 8.515625 -8.453125 Z M 6.15625 -8.453125 "/></g></g></g><g fill="#004aad" fill-opacity="1"><g transform="translate(374.491635, 248.737961)"><g/></g></g><g fill="#004aad" fill-opacity="1"><g transform="translate(381.383797, 248.737961)"><g><path d="M 6.421875 -4.203125 L 4.75 -4.203125 L 4.75 0 L 1.546875 0 L 1.546875 -11.078125 L 4.75 -11.078125 L 4.75 -6.765625 L 6.484375 -6.765625 L 9.484375 -11.078125 L 12.90625 -11.078125 L 9.03125 -5.765625 L 13.171875 0 L 9.390625 0 Z M 6.421875 -4.203125 "/></g></g></g><g fill="#004aad" fill-opacity="1"><g transform="translate(395.661504, 248.737961)"><g><path d="M 1.546875 -11.078125 L 4.734375 -11.078125 L 4.734375 -4.484375 L 10.125 -11.078125 L 13.0625 -11.078125 L 13.0625 0 L 9.875 0 L 9.875 -6.578125 L 4.5 0 L 1.546875 0 Z M 1.546875 -11.078125 "/></g></g></g><g fill="#004aad" fill-opacity="1"><g transform="translate(411.338177, 248.737961)"><g><path d="M 12.15625 -11.078125 L 12.15625 0 L 8.953125 0 L 8.953125 -8.4375 L 5.453125 -8.4375 L 5.34375 -6.484375 C 5.289062 -5.023438 5.15625 -3.816406 4.9375 -2.859375 C 4.71875 -1.898438 4.359375 -1.144531 3.859375 -0.59375 C 3.367188 -0.0507812 2.6875 0.21875 1.8125 0.21875 C 1.34375 0.21875 0.785156 0.140625 0.140625 -0.015625 L 0.3125 -2.65625 C 0.53125 -2.625 0.6875 -2.609375 0.78125 -2.609375 C 1.257812 -2.609375 1.617188 -2.78125 1.859375 -3.125 C 2.097656 -3.476562 2.257812 -3.925781 2.34375 -4.46875 C 2.425781 -5.007812 2.488281 -5.726562 2.53125 -6.625 L 2.703125 -11.078125 Z M 12.15625 -11.078125 "/></g></g></g><g fill="#004aad" fill-opacity="1"><g transform="translate(426.109636, 248.737961)"><g><path d="M 1.546875 -11.078125 L 4.734375 -11.078125 L 4.734375 -4.484375 L 10.125 -11.078125 L 13.0625 -11.078125 L 13.0625 0 L 9.875 0 L 9.875 -6.578125 L 4.5 0 L 1.546875 0 Z M 1.546875 -11.078125 "/></g></g></g><g fill="#004aad" fill-opacity="1"><g transform="translate(441.786309, 248.737961)"><g><path d="M 12.34375 0 L 12.34375 -6.625 L 9.03125 -1.0625 L 7.671875 -1.0625 L 4.4375 -6.640625 L 4.4375 0 L 1.546875 0 L 1.546875 -11.078125 L 4.890625 -11.078125 L 8.4375 -4.671875 L 12.203125 -11.078125 L 15.203125 -11.078125 L 15.25 0 Z M 12.34375 0 "/></g></g></g><g fill="#004aad" fill-opacity="1"><g transform="translate(459.623104, 248.737961)"><g><path d="M 1.53125 -11.078125 L 4.734375 -11.078125 L 4.734375 0 L 1.53125 0 Z M 3.125 -12.609375 C 2.53125 -12.609375 2.046875 -12.78125 1.671875 -13.125 C 1.304688 -13.46875 1.125 -13.894531 1.125 -14.40625 C 1.125 -14.914062 1.304688 -15.335938 1.671875 -15.671875 C 2.046875 -16.015625 2.53125 -16.1875 3.125 -16.1875 C 3.71875 -16.1875 4.195312 -16.019531 4.5625 -15.6875 C 4.9375 -15.363281 5.125 -14.957031 5.125 -14.46875 C 5.125 -13.925781 4.9375 -13.476562 4.5625 -13.125 C 4.195312 -12.78125 3.71875 -12.609375 3.125 -12.609375 Z M 3.125 -12.609375 "/></g></g></g><g fill="#004aad" fill-opacity="1"><g transform="translate(466.967855, 248.737961)"><g><path d="M 10 -5.78125 C 11.300781 -5.34375 11.953125 -4.46875 11.953125 -3.15625 C 11.953125 -2.144531 11.570312 -1.363281 10.8125 -0.8125 C 10.0625 -0.269531 8.941406 0 7.453125 0 L 1.546875 0 L 1.546875 -11.078125 L 7.203125 -11.078125 C 8.585938 -11.078125 9.671875 -10.820312 10.453125 -10.3125 C 11.234375 -9.8125 11.625 -9.109375 11.625 -8.203125 C 11.625 -7.660156 11.484375 -7.175781 11.203125 -6.75 C 10.921875 -6.332031 10.519531 -6.007812 10 -5.78125 Z M 4.484375 -6.515625 L 6.921875 -6.515625 C 8.046875 -6.515625 8.609375 -6.914062 8.609375 -7.71875 C 8.609375 -8.5 8.046875 -8.890625 6.921875 -8.890625 L 4.484375 -8.890625 Z M 7.1875 -2.1875 C 8.363281 -2.1875 8.953125 -2.585938 8.953125 -3.390625 C 8.953125 -3.816406 8.8125 -4.128906 8.53125 -4.328125 C 8.257812 -4.523438 7.832031 -4.625 7.25 -4.625 L 4.484375 -4.625 L 4.484375 -2.1875 Z M 7.1875 -2.1875 "/></g></g></g></svg>